<?xml version="1.0" encoding="utf-8"?>
<!-- Generator: Adobe Illustrator 17.0.0, SVG Export Plug-In . SVG Version: 6.00 Build 0)  -->
<!DOCTYPE svg PUBLIC "-//W3C//DTD SVG 1.1//EN" "http://www.w3.org/Graphics/SVG/1.1/DTD/svg11.dtd">
<svg version="1.1" xmlns="http://www.w3.org/2000/svg" xmlns:xlink="http://www.w3.org/1999/xlink" x="0px" y="0px" width="750px"
	 height="500px" viewBox="0 0 750 500" enable-background="new 0 0 750 500" xml:space="preserve">
<g id="BACKGROUND" display="none">
</g>
<g id="OBJECTS">
	<g>
		<path opacity="0.62" fill="#AEDCFE" d="M596.83,331.748c-86.048,25.104-177.818,27.26-265.788,11.531
			c-43.666-7.808-86.544-20.015-127.835-36.215c-32.502-12.752-86.279-28.778-107.07-58.738
			c-13.901-20.031-20.46-43.037-20.76-67.371c-0.002-0.176-0.003-0.352-0.005-0.528c-0.316-33.455,13.182-69.097,47.698-77.112
			c71.998-16.719,179.302,20.348,280.263-17.745s165.589-71.025,237.61-19.634c72.021,51.391,86.119,228.232-18.476,258.367
			C613.597,326.858,605.069,329.344,596.83,331.748z"/>
		<g>
			<g>
				<ellipse fill="#473D59" cx="255.164" cy="377.999" rx="208.36" ry="7.103"/>
				<polygon fill="#473D59" points="77.675,377.499 343.481,377.499 387.078,146.567 121.273,146.567 				"/>
				<polygon fill="#AEDCFE" points="432.647,377.499 166.841,377.499 123.244,146.567 389.049,146.567 				"/>
				<circle fill="#FFFFFF" cx="361.339" cy="161.779" r="10.12"/>
				<path fill="#473D59" d="M366.965,160.065c0,3.107-2.519,5.626-5.626,5.626l0,0c-3.107,0-5.626-2.519-5.626-5.626v-25.316
					c0-3.107,2.519-5.626,5.626-5.626l0,0c3.107,0,5.626,2.519,5.626,5.626V160.065z"/>
				<circle fill="#FFFFFF" cx="323.209" cy="161.779" r="10.12"/>
				<path fill="#473D59" d="M328.834,160.065c0,3.107-2.519,5.626-5.626,5.626l0,0c-3.107,0-5.626-2.519-5.626-5.626v-25.316
					c0-3.107,2.519-5.626,5.626-5.626l0,0c3.107,0,5.626,2.519,5.626,5.626V160.065z"/>
				<circle fill="#FFFFFF" cx="285.078" cy="161.779" r="10.12"/>
				<path fill="#473D59" d="M290.704,160.065c0,3.107-2.519,5.626-5.626,5.626l0,0c-3.107,0-5.626-2.519-5.626-5.626v-25.316
					c0-3.107,2.519-5.626,5.626-5.626l0,0c3.107,0,5.626,2.519,5.626,5.626V160.065z"/>
				<circle fill="#FFFFFF" cx="246.948" cy="161.779" r="10.12"/>
				<path fill="#473D59" d="M252.574,160.065c0,3.107-2.519,5.626-5.626,5.626l0,0c-3.107,0-5.626-2.519-5.626-5.626v-25.316
					c0-3.107,2.519-5.626,5.626-5.626l0,0c3.107,0,5.626,2.519,5.626,5.626V160.065z"/>
				<circle fill="#FFFFFF" cx="208.817" cy="161.779" r="10.12"/>
				<path fill="#473D59" d="M214.443,160.065c0,3.107-2.519,5.626-5.626,5.626l0,0c-3.107,0-5.626-2.519-5.626-5.626v-25.316
					c0-3.107,2.519-5.626,5.626-5.626l0,0c3.107,0,5.626,2.519,5.626,5.626V160.065z"/>
				<circle fill="#FFFFFF" cx="170.687" cy="161.779" r="10.12"/>
				<path fill="#473D59" d="M176.313,160.065c0,3.107-2.519,5.626-5.626,5.626l0,0c-3.107,0-5.626-2.519-5.626-5.626v-25.316
					c0-3.107,2.519-5.626,5.626-5.626l0,0c3.107,0,5.626,2.519,5.626,5.626V160.065z"/>
				<g>
					<polygon fill="#FFFFFF" points="359.702,213.92 388.792,213.92 393.95,243.01 364.86,243.01 					"/>
					<polygon fill="#FFFFFF" points="325.692,213.92 354.783,213.92 359.941,243.01 330.85,243.01 					"/>
					<polygon fill="#FFFFFF" points="291.683,213.92 320.774,213.92 325.932,243.01 296.841,243.01 					"/>
					<polygon fill="#FFFFFF" points="257.673,213.92 286.764,213.92 291.922,243.01 262.832,243.01 					"/>
					<polygon fill="#FFFFFF" points="223.664,213.92 252.755,213.92 257.913,243.01 228.822,243.01 					"/>
					<polygon fill="#FFFFFF" points="189.655,213.92 218.745,213.92 223.904,243.01 194.813,243.01 					"/>
					<polygon fill="#FFFFFF" points="155.645,213.92 184.736,213.92 189.894,243.01 160.803,243.01 					"/>
				</g>
				<g>
					<polygon fill="#FFFFFF" points="365.873,247.488 394.964,247.488 400.121,276.578 371.031,276.578 					"/>
					<polygon fill="#FFFFFF" points="331.863,247.488 360.954,247.488 366.112,276.578 337.021,276.578 					"/>
					<polygon fill="#FFFFFF" points="297.854,247.488 326.945,247.488 332.103,276.578 303.012,276.578 					"/>
					<polygon fill="#FFFFFF" points="263.845,247.488 292.935,247.488 298.093,276.578 269.003,276.578 					"/>
					<polygon fill="#FFFFFF" points="229.835,247.488 258.926,247.488 264.084,276.578 234.993,276.578 					"/>
					<polygon fill="#FFFFFF" points="195.826,247.488 224.917,247.488 230.075,276.578 200.984,276.578 					"/>
					<polygon fill="#FFFFFF" points="161.816,247.488 190.907,247.488 196.065,276.578 166.975,276.578 					"/>
				</g>
				<g>
					<polygon fill="#FFFFFF" points="371.765,281.056 400.856,281.056 406.014,310.146 376.923,310.146 					"/>
					<polygon fill="#FFFFFF" points="337.756,281.056 366.846,281.056 372.004,310.146 342.914,310.146 					"/>
					<polygon fill="#FFFFFF" points="303.746,281.056 332.837,281.056 337.995,310.146 308.904,310.146 					"/>
					<polygon fill="#FFFFFF" points="269.737,281.056 298.827,281.056 303.986,310.146 274.895,310.146 					"/>
					<polygon fill="#FFFFFF" points="235.727,281.056 264.818,281.056 269.976,310.146 240.885,310.146 					"/>
					<polygon fill="#FFFFFF" points="201.718,281.056 230.809,281.056 235.967,310.146 206.876,310.146 					"/>
					<polygon fill="#FFFFFF" points="167.709,281.056 196.799,281.056 201.957,310.146 172.867,310.146 					"/>
				</g>
				<g>
					<polygon fill="#FFFFFF" points="377.96,314.624 407.051,314.624 412.209,343.714 383.118,343.714 					"/>
					<polygon fill="#FFFFFF" points="343.951,314.624 373.042,314.624 378.2,343.714 349.109,343.714 					"/>
					<polygon fill="#FFFFFF" points="309.942,314.624 339.032,314.624 344.19,343.714 315.1,343.714 					"/>
					<polygon fill="#FFFFFF" points="275.932,314.624 305.023,314.624 310.181,343.714 281.09,343.714 					"/>
					<polygon fill="#FFFFFF" points="241.923,314.624 271.014,314.624 276.172,343.714 247.081,343.714 					"/>
					<polygon fill="#FFFFFF" points="207.913,314.624 237.004,314.624 242.162,343.714 213.072,343.714 					"/>
					<polygon fill="#FFFFFF" points="173.904,314.624 202.995,314.624 208.153,343.714 179.062,343.714 					"/>
				</g>
				<g>
					
						<line fill="none" stroke="#FF7C6E" stroke-width="4.2583" stroke-linecap="round" stroke-miterlimit="10" x1="248.941" y1="213.92" x2="234.901" y2="239.641"/>
					
						<line fill="none" stroke="#FF7C6E" stroke-width="4.2583" stroke-linecap="round" stroke-miterlimit="10" x1="231.374" y1="216.811" x2="252.468" y2="237.818"/>
				</g>
				<g>
					
						<line fill="none" stroke="#FF7C6E" stroke-width="4.2583" stroke-linecap="round" stroke-miterlimit="10" x1="214.489" y1="213.92" x2="200.449" y2="239.641"/>
					
						<line fill="none" stroke="#FF7C6E" stroke-width="4.2583" stroke-linecap="round" stroke-miterlimit="10" x1="196.922" y1="216.811" x2="218.016" y2="237.818"/>
				</g>
				<g>
					
						<line fill="none" stroke="#FF7C6E" stroke-width="4.2583" stroke-linecap="round" stroke-miterlimit="10" x1="178.951" y1="213.92" x2="164.912" y2="239.641"/>
					
						<line fill="none" stroke="#FF7C6E" stroke-width="4.2583" stroke-linecap="round" stroke-miterlimit="10" x1="161.385" y1="216.811" x2="182.479" y2="237.818"/>
				</g>
			</g>
			<linearGradient id="SVGID_1_" gradientUnits="userSpaceOnUse" x1="241.4521" y1="267.3142" x2="336.452" y2="302.3143">
				<stop  offset="0" style="stop-color:#FFFFFF"/>
				<stop  offset="0.1483" style="stop-color:#FBFCFD"/>
				<stop  offset="0.2945" style="stop-color:#EFF3F9"/>
				<stop  offset="0.4399" style="stop-color:#DBE4F0"/>
				<stop  offset="0.5849" style="stop-color:#C0D0E5"/>
				<stop  offset="0.7295" style="stop-color:#9CB5D6"/>
				<stop  offset="0.872" style="stop-color:#7195C5"/>
				<stop  offset="1" style="stop-color:#4373B2"/>
			</linearGradient>
			<path fill="url(#SVGID_1_)" d="M432.032,374.244l-42.983-227.677h-1.971h-20.114v-11.818c0-3.107-2.519-5.626-5.626-5.626
				c-3.107,0-5.626,2.519-5.626,5.626v11.818h-26.879v-11.818c0-3.107-2.519-5.626-5.626-5.626c-3.107,0-5.626,2.519-5.626,5.626
				v11.818h-26.879v-11.818c0-3.107-2.519-5.626-5.626-5.626c-3.107,0-5.626,2.519-5.626,5.626v11.818h-26.879v-11.818
				c0-3.107-2.519-5.626-5.626-5.626c-3.107,0-5.626,2.519-5.626,5.626v11.818h-26.879v-11.818c0-3.107-2.519-5.626-5.626-5.626
				s-5.626,2.519-5.626,5.626v11.818h-26.879v-11.818c0-3.107-2.519-5.626-5.626-5.626c-3.107,0-5.626,2.519-5.626,5.626v11.818
				h-41.818h-1.97L78.29,374.244c-19.948,1.09-31.486,2.376-31.486,3.755c0,3.923,93.286,7.103,208.36,7.103
				s208.36-3.18,208.36-7.103C463.524,376.62,451.983,375.333,432.032,374.244z"/>
		</g>
		<g>
			<path fill="#D65B47" d="M159.397,267.492c0,0,1.449-5.898-1.557-8.62c-3.006-2.722-11.853-2.552-15.936,2.382
				c-4.083,4.934-6.018,11.071-3.062,17.442c2.956,6.371,13.566,27.564,20.904,31.007c7.338,3.442,16.185-1.311,19.077-10.758
				c2.892-9.448-1.871-18.77-9.528-22.616C161.64,272.483,159.05,270.499,159.397,267.492z"/>
			<path fill="#FC9D99" d="M207.203,291.518l-0.523-0.604v-0.028c0-1.502-1.217-2.719-2.719-2.719h-3.631
				c-1.316,0-2.553,0.632-3.324,1.698l-12.968,17.931c0,0-5.391-7.233-11.141-15.32c-5.751-8.086-9.524-8.697-9.524-8.697
				l3.414,23.143l11.23,14.562c2.075,2.69,6.095,2.803,8.317,0.233l14.058-16.262l7.29-8.853c0.724-0.879,0.909-2.085,0.48-3.14
				C207.739,292.427,207.203,291.518,207.203,291.518z"/>
			<ellipse fill="#473D59" cx="168.842" cy="442.969" rx="45.432" ry="4.019"/>
			<g>
				<path fill="#8EBEED" d="M170.381,329.984l4.552,17.062l9.105,42.409l6.469,48.159c0,0,6.469,0.719,6.469,4.792
					c-24.439,0-24.439,0-24.439,0l-6.737-49.597l-10.035-62.825L170.381,329.984z"/>
				<path fill="#D8EEFF" d="M144.179,329.984c0,0-4.836,26.609,2.297,47.352c7.133,20.744,7.133,20.744,7.133,20.744l-11.032,44.326
					h27.804c0,0,0-4.073-4.313-4.792l5.63-35.587c0.715-4.519,0.699-9.123-0.046-13.637l-6.392-38.709
					c0,0,1.647-14.716-0.809-19.697C161.995,325.003,144.179,329.984,144.179,329.984z"/>
				<path fill="#8EBEED" d="M153.609,398.08c0,0,0,0-7.133-20.744c-7.133-20.744-2.297-47.352-2.297-47.352s3.93-1.099,8.352-1.748
					c-1.263,7.35-4.38,29.553,0.461,47.082c5.888,21.324,7.086,24.679,7.086,24.679l-10.88,42.409h-6.621L153.609,398.08z"/>
				<path fill="#7396C0" d="M164.451,329.984c2.073,4.205,1.222,15.346,0.907,18.717l0,0c-0.467-3.984-4.537-15.227-6.668-20.923
					C161.432,327.848,163.686,328.433,164.451,329.984z"/>
				<path fill="#FF7C6E" d="M143.77,437.614h22.298c4.313,0.719,4.313,4.792,4.313,4.792h-27.804L143.77,437.614z"/>
				<path fill="#FF7C6E" d="M196.976,442.406c-24.439,0-24.439,0-24.439,0l-0.651-4.792h18.621
					C190.507,437.614,196.976,438.333,196.976,442.406z"/>
				<path fill="#7396C0" d="M171.913,400.467c-3.854-0.103-6.948-3.252-6.948-7.131c0-3.67,2.77-6.69,6.332-7.092l0.354,2.146
					C172.311,392.386,172.397,396.452,171.913,400.467z"/>
				<path opacity="0.49" fill="#2D537A" d="M185.329,399.278c-3.919,0-7.095-3.177-7.095-7.095c0-3.166,2.075-5.846,4.939-6.759
					l0.865,4.031l1.319,9.822C185.348,399.277,185.339,399.278,185.329,399.278z"/>
				<path fill="#385445" d="M152.992,438.333c0,0.397,0.322,0.719,0.719,0.719h11.639c0.397,0,0.719-0.322,0.719-0.719l0,0
					c0-0.397-0.322-0.719-0.719-0.719h-11.639C153.314,437.614,152.992,437.936,152.992,438.333L152.992,438.333z"/>
				<path fill="#385445" d="M180.803,438.333c0,0.397,0.322,0.719,0.719,0.719h8.266c0.397,0,0.719-0.322,0.719-0.719l0,0
					c0-0.397-0.322-0.719-0.719-0.719h-8.266C181.125,437.614,180.803,437.936,180.803,438.333L180.803,438.333z"/>
				<path fill="none" stroke="#0F76A6" stroke-width="0.6663" stroke-miterlimit="10" d="M165.259,346.917l6.081,37.043
					c1.468,8.65,1.295,17.498-0.508,26.084l-1.634,7.782"/>
			</g>
			<path fill="#473D59" d="M147.058,282.251l-12.258,8.663c0,0,12.066,19.353,9.268,40.018c12.835,4.133,26.313-0.948,26.313-0.948
				l-2.875-20.975c0,0,3.594-4.693,1.617-11.152c-1.977-6.459-5.75-14.078-5.75-14.078l-11.84-2.486L147.058,282.251z"/>
			<path fill="#FC9D99" d="M139.71,287.444c1.918,2.777,7.25,11.823,2.268,20.353c-2.871-9.971-7.177-16.883-7.177-16.883
				L139.71,287.444z"/>
			<path opacity="0.6" fill="#D25C53" d="M183.589,319.229c1.451,0,2.811,0.382,3.992,1.044l-1.248,1.444
				c-2.222,2.57-6.242,2.458-8.316-0.233l-0.023-0.03C179.457,320.078,181.421,319.229,183.589,319.229z"/>
			
				<line fill="none" stroke="#A33E3E" stroke-width="0.6663" stroke-miterlimit="10" x1="184.038" y1="307.797" x2="180.803" y2="311.705"/>
			<path fill="#FC9D99" d="M167.968,312.383l2.413,17.601c0,0-13.478,5.082-26.313,0.948c0.694-5.128,0.472-10.174-0.252-14.864
				C154.075,317.074,164.085,313.844,167.968,312.383z"/>
			<ellipse fill="#9E3C3C" cx="165.259" cy="327.523" rx="0.809" ry="1.286"/>
			<path fill="#312D3F" d="M167.506,309.009c0,0-11.935,1.358-18.925-0.575c-6.99-1.933,6.553,4.627,19.388,3.949
				C167.506,309.009,167.506,309.009,167.506,309.009z"/>
			<path fill="#FC9D99" d="M147.65,273.163l1.302,11.353c0.177,1.546,1.598,2.641,3.139,2.417l0.055-0.008
				c1.456-0.211,2.491-1.528,2.351-2.993l-0.91-9.539L147.65,273.163z"/>
			<path fill="#7A2D33" d="M154.114,279.92l-0.527-5.528l-5.936-1.229l0.125,1.089C148.349,275.173,150.911,279.022,154.114,279.92z
				"/>
			<path fill="#FC9D99" d="M157.897,261.254c0,0,3.856,9.868,0,17.013c-2.609,0.907-11.002-1.588-12.25-8.507
				C150.411,268.286,156.082,265.564,157.897,261.254z"/>
			<path fill="#8E3930" d="M155.452,269.144c0,0.39-0.316,0.706-0.706,0.706l0,0c-0.39,0-0.706-0.316-0.706-0.706v-0.947
				c0-0.39,0.316-0.706,0.706-0.706l0,0c0.39,0,0.706,0.316,0.706,0.706V269.144z"/>
			<polyline fill="none" stroke="#AA4944" stroke-width="0.5974" stroke-miterlimit="10" points="158.124,268.671 158.577,271.462 
				157.103,271.462 			"/>
			<path fill="#FFFFEB" d="M158.577,273.163l-4.537,0.567C154.04,273.73,157.547,275.545,158.577,273.163z"/>
			<path fill="none" stroke="#AA4944" stroke-width="0.5974" stroke-miterlimit="10" d="M155.452,266.131
				c0,0-1.095-0.363-2.823,0.591"/>
			<circle fill="#FC9D99" cx="145.158" cy="272.619" r="2.552"/>
			
				<line fill="none" stroke="#AA4944" stroke-width="0.5974" stroke-linecap="round" stroke-miterlimit="10" x1="143.695" y1="272.05" x2="146.999" y2="273.163"/>
			<circle fill="#FFFFFF" cx="144.879" cy="275.55" r="1.184"/>
			<path fill="#FF7C6E" d="M152.131,257.116c-3.595-0.071-7.772,1.171-10.227,4.138c-2.262,2.733-3.86,5.837-4.337,9.144
				C147.244,267.967,150.818,261.633,152.131,257.116z"/>
			<g>
				<path fill="#D65B47" d="M241.842,233.855l-26.354,14.459l-98.267,109.874c-1.652,1.847-1.494,4.683,0.353,6.335l4.41,3.945
					l4.41,3.945c1.847,1.652,4.683,1.494,6.335-0.353l98.267-109.874l11.439-27.798
					C242.589,234.018,242.192,233.663,241.842,233.855z"/>
				
					<rect x="173.192" y="240.106" transform="matrix(0.7454 0.6666 -0.6666 0.7454 246.4577 -46.1134)" fill="#8EBEED" width="20.807" height="118.948"/>
				
					<rect x="178.92" y="240.042" transform="matrix(0.7454 0.6666 -0.6666 0.7454 246.3977 -46.0818)" fill="#7396C0" width="9.208" height="118.948"/>
				
					<rect x="129.961" y="342.543" transform="matrix(0.7454 0.6666 -0.6666 0.7454 267.674 -4.9864)" fill="#473D59" width="20.807" height="10.75"/>
				<path fill="#F9BBB9" d="M241.842,233.855l-26.354,14.459l15.509,13.871l11.439-27.798
					C242.589,234.018,242.192,233.663,241.842,233.855z"/>
				
					<rect x="135.689" y="342.479" transform="matrix(0.7454 0.6666 -0.6666 0.7454 267.614 -4.9547)" opacity="0.53" fill="#8EBEED" width="9.208" height="10.75"/>
				<path fill="#473D59" d="M241.842,233.855l-10.233,5.614l6.386,5.712l4.442-10.794
					C242.589,234.018,242.192,233.663,241.842,233.855z"/>
			</g>
			<path fill="#473D59" d="M201.42,286.414c0,0-3.179,0.747-2.717,3.403c-3.559,0.77-5.412,8.334-4.428,13.429l9.975-11.154
				L201.42,286.414z"/>
			<polygon opacity="0.6" fill="#473D59" points="154.322,347.918 150.236,343.644 144.048,336.749 142.267,330.185 
				137.526,335.486 141.738,344.759 150.682,351.988 151.703,350.847 154.322,347.918 			"/>
			<path fill="#FC9D99" d="M134.8,290.914c0,0-2.875,2.17-4.492,8.156c-1.185,4.387-3.723,19.807-4.994,27.736
				c-0.491,3.062,0.259,6.187,2.082,8.696l14.166,19.497c1.186,1.632,2.919,2.783,4.884,3.242l0.031,0.007l2.414,2.837
				c0.552,0.649,1.56,0.632,2.09-0.035l0.016-0.02c0.328-0.413,0.386-0.978,0.15-1.449l-2.565-5.107l1.842,0.826
				c1.093,0.49,2.353-0.192,2.542-1.375l0.005-0.031c0.07-0.437-0.022-0.885-0.259-1.259l-17.012-26.917l5.379-26.648
				C141.078,299.07,139.113,291.328,134.8,290.914z"/>
			<path opacity="0.6" fill="#D25C53" d="M131.027,331.822c0,2.088-1.05,3.93-2.649,5.03l-0.982-1.351
				c-1.823-2.509-2.573-5.634-2.082-8.696c0.054-0.338,0.112-0.695,0.17-1.059C128.592,326.03,131.027,328.641,131.027,331.822z"/>
			<path fill="#FC9D99" d="M207.573,292.196l-3.111-5.483c-0.652-1.103-2.188-1.254-3.042-0.299l-0.025,0.028
				c-0.452,0.505-0.599,1.212-0.387,1.856l1.452,4.402l-2.031-2.386c-0.644-0.757-1.808-0.771-2.47-0.03l-1.979,2.213
				c-0.544,0.608-0.785,1.428-0.656,2.233l1.653,10.388L207.573,292.196z"/>
			
				<line fill="none" stroke="#AA4944" stroke-width="0.6837" stroke-linecap="round" stroke-miterlimit="10" x1="197.228" y1="291.1" x2="199.279" y2="296.703"/>
			
				<line fill="none" stroke="#AA4944" stroke-width="0.6837" stroke-linecap="round" stroke-miterlimit="10" x1="135.699" y1="325.718" x2="132.838" y2="321.402"/>
			<path opacity="0.34" fill="#FFFFFF" d="M150.781,267.733c0.761,3.302,2.067,7.437,4.214,10.547
				c1.199,0.226,2.239,0.218,2.902-0.012c3.856-7.146,0-17.013,0-17.013C156.718,264.054,153.909,266.18,150.781,267.733z"/>
		</g>
		<g>
			<g>
				<path fill="#5F5277" d="M567.996,221.067c0,0,35.916-14.591,45.189-40.724c9.272-26.134,34.405-44.086,34.405-44.086
					s-73.588,19.711-95.162,82.156C567.996,221.067,567.996,221.067,567.996,221.067z"/>
				<path opacity="0.38" fill="none" stroke="#442020" stroke-width="1.1766" stroke-miterlimit="10" d="M647.59,136.257
					c0,0-65.29,36.661-86,88.259"/>
				<path opacity="0.38" fill="#442020" d="M552.428,218.413c15.568,2.654,15.568,2.654,15.568,2.654s6.052-2.462,13.826-7.165
					c-4.342-5.101-8.573-18.907-11.059-28.196C563.226,195.002,556.772,205.84,552.428,218.413z"/>
			</g>
			<g>
				<path fill="#5F5277" d="M570.171,240.426c0,0,18.347-26.886,43.323-36.261c9.408-3.531,18.653-8.653,26.466-15.399
					c5.596-4.832,10.756-14.684,18.914-14.348c17.222,0.707,4.291,23.209-0.477,29.857c-16.129,20.091-29.803,17.684-46.773,23.452
					c-16.97,5.767-32.213,27.574-33.776,30.109C576.285,260.371,570.171,240.426,570.171,240.426z"/>
				<path opacity="0.38" fill="none" stroke="#442020" stroke-width="1.1766" stroke-miterlimit="10" d="M579.067,239.297
					c0,0,18.84-23.512,40.765-28.315c21.925-4.803,37.698-26.612,37.698-26.612"/>
				<path opacity="0.38" fill="#442020" d="M593.911,239.103c1.024-8.015-4.048-15.785-6.047-18.488
					c-10.914,9.891-17.693,19.812-17.693,19.812s3.284,10.708,5.653,15.432c1.58-0.614,3.271-1.342,4.963-2.181
					C583.631,249.905,588.265,244.277,593.911,239.103z"/>
			</g>
			<g>
				<g>
					<path fill="#5F5277" d="M373.337,385.458c0,0-31.368-15.916-62.114-22.116c-30.746-6.2-58.098-48.385-91.871-49.131
						c20.868,25.302,24.376,59.332,88.927,70.208c21.649,3.099,53.5,15.963,70.339,26.137
						C395.457,420.73,373.337,385.458,373.337,385.458z"/>
				</g>
				<path opacity="0.38" fill="#442020" d="M362.516,392.657c0,0-31.433-14.747-62.147-18.936
					c-30.715-4.189-59.26-42.425-59.26-42.425s34.182,36.219,59.359,38.681c25.177,2.462,60.702,17.074,60.702,17.074
					L362.516,392.657z"/>
				<path opacity="0.38" fill="#442020" d="M312.102,363.528c30.462,6.322,61.235,21.93,61.235,21.93s22.121,35.271,5.281,25.097
					c-11.311-6.834-29.395-14.878-46.611-20.364L312.102,363.528z"/>
				<g>
					<path fill="none" stroke="#5F5277" stroke-width="2.3532" stroke-miterlimit="10" d="M376.625,370.326
						c0,0-19.389-22.259-47.573-28.728c-28.184-6.469-58.097-20.838-81.168-46.155"/>
					<g>
						<path fill="#5F5277" d="M342.32,345.48c0,0,3.371-6.138-2.221-11.836C336.955,337.96,339.451,341.998,342.32,345.48z"/>
						<path fill="#5F5277" d="M342.32,345.48c0,0-1.82,6.762-9.801,6.998C333.242,347.186,337.84,346.003,342.32,345.48z"/>
					</g>
					<g>
						<path fill="#5F5277" d="M326.954,341.147c0,0,3.371-6.137-2.221-11.836C321.589,333.628,324.085,337.665,326.954,341.147z"/>
						<path fill="#5F5277" d="M326.954,341.147c0,0-1.82,6.762-9.801,6.998C317.876,342.854,322.473,341.671,326.954,341.147z"/>
					</g>
					<g>
						<g>
							<path fill="#5F5277" d="M313.309,336.622c0,0,2.438-6.564-3.926-11.384C306.902,329.967,309.962,333.597,313.309,336.622z"/>
							<path fill="#5F5277" d="M313.309,336.622c0,0-0.813,6.955-8.673,8.355C304.577,339.637,308.953,337.794,313.309,336.622z"/>
						</g>
					</g>
					<g>
						<path fill="#5F5277" d="M299.374,331.422c0,0,2.438-6.564-3.927-11.385C292.968,324.767,296.027,328.397,299.374,331.422z"/>
						<path fill="#5F5277" d="M299.374,331.422c0,0-0.813,6.955-8.673,8.355C290.642,334.437,295.018,332.595,299.374,331.422z"/>
					</g>
					<g>
						<path fill="#5F5277" d="M286.678,324.88c0,0,4.754-5.141,0.704-12.022C283.288,316.287,284.735,320.808,286.678,324.88z"/>
						<path fill="#5F5277" d="M286.678,324.88c0,0-3.399,6.122-11.201,4.423C277.456,324.343,282.203,324.306,286.678,324.88z"/>
					</g>
					<g>
						<path fill="#5F5277" d="M273.295,318.029c0,0,4.754-5.141,0.704-12.022C269.905,309.436,271.352,313.957,273.295,318.029z"/>
						<path fill="#5F5277" d="M273.295,318.029c0,0-3.4,6.122-11.201,4.423C264.073,317.492,268.82,317.455,273.295,318.029z"/>
					</g>
					<g>
						<g>
							<path fill="#5F5277" d="M261.166,307.244c0,0,4.92-4.982,1.099-11.992C258.06,298.544,259.358,303.111,261.166,307.244z"/>
							<path fill="#5F5277" d="M261.166,307.244c0,0-3.599,6.007-11.34,4.053C251.966,306.404,256.712,306.523,261.166,307.244z"/>
						</g>
					</g>
					<path fill="#5F5277" d="M250.135,297.521c0,0-6.978-0.585-8.633-8.396C246.837,288.892,248.82,293.205,250.135,297.521z"/>
				</g>
				<g>
					<g>
						<path fill="#5F5277" d="M374.446,413.019c0,0-37.102,15.335-62.934,2.792c-25.832-12.543-57.421-7.525-57.421-7.525
							s68.617-38.933,129.913-8.538C374.446,413.019,374.446,413.019,374.446,413.019z"/>
						<path opacity="0.38" fill="none" stroke="#442020" stroke-width="1.1766" stroke-miterlimit="10" d="M254.09,408.287
							c0,0,74.812-20.397,127.587,2.622"/>
					</g>
					<path opacity="0.38" fill="#442020" d="M330.494,388.165c17.209-0.23,35.668,2.737,53.509,11.583
						c-3.2,4.444-5.325,7.394-6.74,9.36c1.486,0.57,2.96,1.166,4.415,1.8l-5.628-0.116c-1.6,2.222-1.603,2.226-1.603,2.226
						s-8.877,3.661-20.96,5.942L330.494,388.165z"/>
				</g>
			</g>
			<g>
				<g>
					<path fill="#FC9D99" d="M625.74,272.904l-55.406-46.545l-9.061-6.569c-1.147-0.831-2.771-0.329-3.247,1.005l-0.014,0.04
						c-0.276,0.773-0.082,1.636,0.498,2.216l6.146,6.146c0,0-5.393-0.568-1.703,4.258c3.69,4.826,51.138,51.096,51.138,51.096
						L625.74,272.904z"/>
					
						<line fill="none" stroke="#AA4944" stroke-width="0.7788" stroke-linecap="round" stroke-miterlimit="10" x1="564.657" y1="229.197" x2="572.321" y2="234.023"/>
					<path fill="#BA3936" d="M596.872,267.678c9.474,9.32,17.219,16.873,17.219,16.873l11.648-11.648l-18.899-15.877
						L596.872,267.678z"/>
					<path opacity="0.6" fill="#D25C53" d="M580.065,251.055c3.893,3.879,8.072,8.014,12.124,12.011
						C592.894,252.031,580.067,251.055,580.065,251.055z"/>
				</g>
				<ellipse fill="#473D59" cx="454.977" cy="440.06" rx="91.331" ry="5.39"/>
				<g>
					<g>
						
							<rect x="519.862" y="154.697" transform="matrix(0.8501 0.5266 -0.5266 0.8501 168.9096 -255.3768)" fill="#8EBEED" width="26.476" height="28.709"/>
						
							<rect x="524.588" y="156.042" transform="matrix(0.8501 0.5266 -0.5266 0.8501 165.6007 -259.0083)" fill="#473D59" width="26.476" height="10.761"/>
						<g>
							<path fill="#D65B47" d="M552.576,172.346l-31.158-19.299c-2.488-1.541-3.255-4.806-1.714-7.294l6.003-9.692
								c1.541-2.488,4.807-3.255,7.294-1.714l31.158,19.299c2.488,1.541,3.255,4.807,1.714,7.294l-6.003,9.692
								C558.329,173.119,555.063,173.887,552.576,172.346z"/>
							
								<rect x="526.825" y="134.047" transform="matrix(0.8501 0.5266 -0.5266 0.8501 155.7097 -257.0166)" fill="#FF7C6E" width="5.121" height="21.997"/>
							
								<rect x="535.779" y="139.593" transform="matrix(0.8501 0.5266 -0.5266 0.8501 159.9718 -260.9002)" fill="#FF7C6E" width="5.121" height="21.997"/>
							
								<rect x="544.733" y="145.139" transform="matrix(0.8501 0.5266 -0.5266 0.8501 164.234 -264.7839)" fill="#FF7C6E" width="5.121" height="21.997"/>
							
								<rect x="553.687" y="150.685" transform="matrix(0.8501 0.5266 -0.5266 0.8501 168.4962 -268.6676)" fill="#FF7C6E" width="5.121" height="21.997"/>
						</g>
					</g>
					<g>
						
							<rect x="363.355" y="154.697" transform="matrix(-0.8501 0.5266 -0.5266 -0.8501 785.7646 114.4681)" fill="#8EBEED" width="26.476" height="28.709"/>
						
							<rect x="358.63" y="156.042" transform="matrix(-0.8501 0.5266 -0.5266 -0.8501 773.0052 102.8417)" fill="#473D59" width="26.476" height="10.761"/>
						<g>
							<path fill="#D65B47" d="M357.118,172.346l31.158-19.299c2.488-1.541,3.255-4.806,1.714-7.294l-6.003-9.692
								c-1.541-2.488-4.807-3.255-7.294-1.714l-31.158,19.299c-2.488,1.541-3.255,4.807-1.714,7.294l6.003,9.692
								C351.364,173.119,354.63,173.887,357.118,172.346z"/>
							
								<rect x="377.747" y="134.047" transform="matrix(-0.8501 0.5266 -0.5266 -0.8501 779.9962 68.0991)" fill="#FF7C6E" width="5.121" height="21.997"/>
							
								<rect x="368.793" y="139.593" transform="matrix(-0.8501 0.5266 -0.5266 -0.8501 766.3503 83.0748)" fill="#FF7C6E" width="5.121" height="21.997"/>
							
								<rect x="359.839" y="145.139" transform="matrix(-0.8501 0.5266 -0.5266 -0.8501 752.7045 98.0505)" fill="#FF7C6E" width="5.121" height="21.997"/>
							
								<rect x="350.885" y="150.685" transform="matrix(-0.8501 0.5266 -0.5266 -0.8501 739.0587 113.0262)" fill="#FF7C6E" width="5.121" height="21.997"/>
						</g>
					</g>
					<rect x="434.27" y="122.531" fill="#8EBEED" width="41.183" height="44.656"/>
					<rect x="434.27" y="122.531" fill="#473D59" width="41.183" height="16.739"/>
					<circle fill="#FF7C6E" cx="454.84" cy="294.642" r="145.758"/>
					<circle fill="#D65B47" cx="454.84" cy="294.557" r="136.178"/>
					<circle fill="#FFFFFF" cx="454.84" cy="294.364" r="127.177"/>
					<g>
						<path fill="#8EBEED" d="M537.661,345.184c0.207-2.734,2.757-4.616,4.959-3.424c4.697,2.542,9.308,5.249,13.889,7.998
							c1.506,0.904,1.776,2.989,0.861,4.466c-0.931,1.503-2.836,2.044-4.54,1.1c-3.635-2.012-7.216-4.121-10.818-6.193
							c-0.842-0.484-1.784-0.864-2.484-1.506C538.785,346.943,538.274,346.008,537.661,345.184z"/>
						<path fill="#8EBEED" d="M458.204,402.404c0,2.431,0.016,4.862-0.005,7.293c-0.019,2.137-1.384,3.633-3.287,3.655
							c-2.002,0.024-3.454-1.486-3.46-3.673c-0.013-4.862-0.008-9.724,0.015-14.585c0.011-2.281,1.337-3.708,3.374-3.712
							c2.029-0.004,3.327,1.416,3.35,3.73c0.024,2.431,0.005,4.862,0.005,7.293C458.199,402.404,458.201,402.404,458.204,402.404z"
							/>
						<path fill="#8EBEED" d="M562.35,298.239c-2.432,0-4.864,0.021-7.296-0.006c-2.33-0.026-3.696-1.304-3.689-3.381
							c0.007-1.968,1.363-3.292,3.604-3.315c4.918-0.049,9.836-0.046,14.754-0.01c2.116,0.016,3.586,1.485,3.565,3.403
							c-0.021,1.932-1.468,3.266-3.643,3.291c-2.432,0.028-4.864,0.007-7.296,0.007C562.35,298.231,562.35,298.235,562.35,298.239z"
							/>
						<path fill="#8EBEED" d="M408.242,381.804c-0.117,0.297-0.311,1.029-0.673,1.666c-2.368,4.175-4.759,8.338-7.172,12.488
							c-1.09,1.875-3.015,2.489-4.664,1.563c-1.795-1.008-2.316-2.93-1.217-4.869c2.419-4.271,4.868-8.524,7.342-12.763
							c0.946-1.621,2.548-2.281,4.123-1.721C407.445,378.689,408.256,379.747,408.242,381.804z"/>
						<path fill="#8EBEED" d="M505.543,378.005c0.468,0.382,1.656,0.952,2.235,1.895c2.543,4.14,4.935,8.375,7.329,12.605
							c1.136,2.007,0.691,3.955-1.002,4.947c-1.784,1.045-3.67,0.456-4.894-1.634c-2.456-4.195-4.897-8.4-7.279-12.637
							C500.535,380.694,502.085,377.985,505.543,378.005z"/>
						<path fill="#8EBEED" d="M347.347,298.201c-2.432-0.001-4.864,0.022-7.295-0.008c-2.228-0.027-3.574-1.297-3.574-3.3
							c0-1.988,1.357-3.316,3.585-3.339c4.863-0.049,9.727-0.054,14.591-0.031c2.148,0.01,3.655,1.414,3.68,3.296
							c0.027,2.045-1.362,3.344-3.69,3.375C352.211,298.226,349.779,298.202,347.347,298.201z"/>
						<path fill="#8EBEED" d="M355.436,355.782c-1.878-0.132-2.953-0.893-3.433-2.406c-0.472-1.489,0.098-3.005,1.575-3.877
							c3.81-2.248,7.651-4.442,11.481-6.655c0.56-0.324,1.119-0.654,1.698-0.941c1.78-0.879,3.692-0.309,4.593,1.352
							c0.854,1.576,0.346,3.469-1.337,4.476c-3.008,1.801-6.063,3.525-9.098,5.28c-1.214,0.702-2.409,1.441-3.651,2.089
							C356.609,355.443,355.872,355.624,355.436,355.782z"/>
						<path fill="#8EBEED" d="M458.144,187.459c0,2.428,0.016,4.857-0.005,7.285c-0.018,2.123-1.362,3.568-3.326,3.633
							c-1.754,0.058-3.285-1.452-3.307-3.485c-0.054-4.964-0.049-9.929,0.001-14.892c0.021-2.026,1.504-3.464,3.34-3.442
							c1.971,0.023,3.264,1.432,3.279,3.617c0.016,2.428,0.004,4.856,0.004,7.285C458.134,187.459,458.139,187.459,458.144,187.459z
							"/>
						<path fill="#8EBEED" d="M541.682,248.268c-1.878,0.004-2.99-0.703-3.505-2.218c-0.541-1.591-0.004-3.093,1.559-4.024
							c3.202-1.908,6.448-3.739,9.677-5.601c1.123-0.648,2.228-1.331,3.377-1.929c1.733-0.902,3.614-0.412,4.545,1.122
							c0.996,1.641,0.579,3.564-1.203,4.622c-4.368,2.593-8.786,5.103-13.199,7.619C542.48,248.116,541.925,248.191,541.682,248.268
							z"/>
						<path fill="#8EBEED" d="M515.821,195.211c-0.273,0.727-0.422,1.366-0.733,1.913c-2.396,4.217-4.794,8.433-7.251,12.614
							c-1.174,1.998-3.058,2.544-4.791,1.536c-1.658-0.964-2.099-2.86-0.992-4.802c2.427-4.26,4.864-8.517,7.393-12.717
							c1.394-2.315,3.914-2.519,5.472-0.526C515.355,193.787,515.53,194.55,515.821,195.211z"/>
						<path fill="#8EBEED" d="M367.873,248.232c-0.248-0.096-0.879-0.252-1.423-0.563c-4.261-2.439-8.513-4.894-12.752-7.372
							c-1.704-0.996-2.285-3.033-1.38-4.596c0.893-1.544,2.806-2.137,4.517-1.182c4.429,2.471,8.821,5.01,13.189,7.586
							c1.5,0.884,1.999,2.398,1.452,3.896C370.938,247.475,369.869,248.251,367.873,248.232z"/>
						<path fill="#8EBEED" d="M408.197,208.03c0.035,1.857-0.835,3.085-2.37,3.532c-1.536,0.447-2.838-0.026-3.637-1.365
							c-2.624-4.397-5.207-8.82-7.726-13.277c-0.945-1.672-0.332-3.658,1.189-4.521c1.564-0.888,3.471-0.466,4.484,1.221
							c2.606,4.342,5.121,8.74,7.644,13.132C408.04,207.204,408.113,207.764,408.197,208.03z"/>
					</g>
					<circle fill="#8EBEED" cx="454.84" cy="294.873" r="36.564"/>
					<circle fill="#7396C0" cx="455.133" cy="294.364" r="9.898"/>
					<path fill="#473D59" d="M458.475,193.763c0-1.846-1.496-3.342-3.342-3.342l0,0c-1.846,0-3.342,1.496-3.342,3.342v100.22
						c0,1.846,1.496,3.342,3.342,3.342l0,0c1.846,0,3.342-1.496,3.342-3.342V193.763z"/>
					<path fill="#473D59" d="M402.454,329.091c-1.619,0.932-3.687,0.375-4.619-1.244l0,0c-0.932-1.619-0.375-3.687,1.244-4.619
						l54.326-31.277c1.619-0.932,3.687-0.375,4.619,1.244l0,0c0.932,1.619,0.375,3.687-1.244,4.619L402.454,329.091z"/>
					<g>
						<path fill="#D65B47" d="M483.313,133.264h-57.009c-4.552,0-8.241-3.69-8.241-8.241v-17.733c0-4.552,3.69-8.241,8.241-8.241
							h57.009c4.552,0,8.241,3.69,8.241,8.241v17.733C491.554,129.574,487.865,133.264,483.313,133.264z"/>
						<rect x="426.304" y="99.048" fill="#FF7C6E" width="7.966" height="34.215"/>
						<rect x="442.687" y="99.048" fill="#FF7C6E" width="7.966" height="34.215"/>
						<rect x="459.07" y="99.048" fill="#FF7C6E" width="7.966" height="34.215"/>
						<rect x="475.453" y="99.048" fill="#FF7C6E" width="7.966" height="34.215"/>
					</g>
				</g>
				<ellipse fill="#312D3F" cx="602.271" cy="442.406" rx="52.785" ry="5.172"/>
				<path fill="#7396C0" d="M633.92,347.918c0,0-8.613,22.213-22.18,38.326c25.791,46.45,26.912,47.757,26.912,47.757h-33.139
					l-17.696-47.757L633.92,347.918z"/>
				<polygon fill="#312D3F" points="638.653,434.001 642.391,442.406 607.628,442.406 605.514,434.001 				"/>
				<path fill="#473D59" d="M616.043,434.001l-16.035-44.562c0,0,15.925-18.274,22.583-27.002
					c-32.072,24.547-32.072,24.547-32.072,24.547l10.712,47.016H616.043z"/>
				<path fill="#8EBEED" d="M636.41,334.887c0,0,0.737,20.807-20.366,36.88l-21.369,15.502l10.84,46.732h-31.896l-9.735-48.015
					c-1.063-5.243,0.98-10.63,5.252-13.85l32.135-24.218l1.002-6.801L636.41,334.887z"/>
				<path fill="#544768" d="M605.514,434.001l2.115,8.405h-45.486c0,0,1.386-6.35,11.475-8.405
					C599.405,434.001,605.514,434.001,605.514,434.001z"/>
				<path fill="#7396C0" d="M579.864,377.364c0-3.979-1.431-7.622-3.804-10.447l-6.926,5.22c-4.272,3.22-6.315,8.607-5.252,13.85
					l1.528,7.535C573.54,392.623,579.864,385.733,579.864,377.364z"/>
				<path fill="none" stroke="#0F76A6" stroke-width="0.6663" stroke-miterlimit="10" d="M625.74,336.998
					c0,0,0.782,12.849-21.31,29.918c-18.001,13.25-21.82,15.432-21.82,15.432l11.728,51.653"/>
				<path fill="#473D59" d="M570.375,323.53c0,0,6.835,1.117,15.766,0.178c5.368-0.564,9.422-1.045,11.812-1.339
					c0.454-2.358,0.851-4.736,1.19-7.133L570.375,323.53z"/>
				<path fill="#7396C0" d="M606.219,340.397L606.219,340.397c0,0,1.385,8.492,7.016,10.45c5.288-5.24,7.258-11.165,7.802-13.154
					L606.219,340.397z"/>
				<path fill="#473D59" d="M602.271,341.117c0,0,17.484,4.52,33.407,0.479c0.819-4.089,0.732-6.709,0.732-6.709L602.271,341.117z"
					/>
				<path fill="#473D59" d="M617.305,259.416c0,0-0.374-3.682,1.951-6.352c2.326-2.67,11.283-1.895,14.039,0.603
					c2.756,2.498,1.884,12.575-4.829,18.26C626.75,269.343,617.305,259.416,617.305,259.416z"/>
				<path fill="#D65B47" d="M627.19,274.789l12.958,12.005l-3.738,48.093c0,0-14.204,7.725-34.139,6.23
					c9.22-56.068,9.22-56.068,9.22-56.068s1.976-10.053,12.575-11.257C627.19,274.789,627.19,274.789,627.19,274.789z"/>
				<path fill="#473D59" d="M606.219,317.108c0,0,15.86-1.995,31.94-4.732l0.805-10.363l-25.895,7.665L606.219,317.108z"/>
				<path fill="#FC9D99" d="M640.148,286.794c0,0,8.99,8.493,3.489,17.194c-4.715,7.458-54.807,16.96-69.022,19.523
					c-3.35,0.604-6.854-0.183-9.465-2.367c-0.354-0.296-0.693-0.616-1.005-0.958c-5.482,0.249-8.472-1.994-6.479-3.24
					c1.993-1.246,8.511-2.99,8.511-2.99s1.705-1.993-1.783-1.993c-3.489,0-2.99-4.336,4.236-4.411
					c7.226-0.074,29.404-4.56,41.615-7.799C622.455,296.512,640.148,286.794,640.148,286.794z"/>
				<path fill="none" stroke="#AA4944" stroke-width="0.6837" stroke-linecap="round" stroke-miterlimit="10" d="M564.145,320.185
					c0,0,3.738-0.748,6.23-1.495"/>
				<path fill="#D65B47" d="M623.173,312.851c10.385-2.922,18.678-6.039,20.463-8.863c5.501-8.701-3.489-17.194-3.489-17.194
					s-12.773,7.015-24.104,11.112C618.551,300.867,621.997,306.009,623.173,312.851z"/>
				<path fill="#FC9D99" d="M620.711,271.593v6.354c0,0-5.233,6.168-1.495,5.607c3.738-0.561,10.092-5.963,10.092-5.963v-11.605
					L620.711,271.593z"/>
				<path fill="#7A2D33" d="M620.711,276.108c1.897-0.726,5.695-2.684,7.756-7.249c0.581-1.287,0.549-2.033,0.142-2.416
					l-7.898,5.151V276.108z"/>
				<path fill="#FC9D99" d="M619.963,255.147c0,0-4.299,5.98-5.98,11.961c-1.682,5.98,0,6.167,0,6.167s4.672,1.869,11.4-1.495
					c5.233-3.925,6.167-8.784,6.167-8.784s-6.167,0-7.476-5.42C623.141,262.809,620.15,260.567,619.963,255.147z"/>
				<circle fill="#FC9D99" cx="631.551" cy="266.641" r="3.084"/>
				<path fill="none" stroke="#AA4944" stroke-width="0.5974" stroke-linecap="round" stroke-miterlimit="10" d="M621.474,263.902
					c0,0,1.936-0.389,3.662,0.814"/>
				<path fill="none" stroke="#AA4944" stroke-width="0.5974" stroke-linecap="round" stroke-miterlimit="10" d="M617.917,262.989
					c0,0-0.572-0.555-2.117-0.591"/>
				<path fill="#FFFFFF" d="M615.8,267.952l5.388,0.994C621.189,268.946,616.578,271.789,615.8,267.952z"/>
				<path fill="none" stroke="#473D59" stroke-width="0.7476" stroke-linecap="round" stroke-miterlimit="10" d="M622.393,261.66
					c0,0,1.934-0.404,3.347,1.061"/>
				<path fill="none" stroke="#473D59" stroke-width="0.7476" stroke-linecap="round" stroke-miterlimit="10" d="M619.567,260.994
					c0,0-1.387-1.289-2.603-0.959"/>
				<path opacity="0.6" fill="#D25C53" d="M618.531,314.11c-1.58-3.121-4.81-5.266-8.548-5.266c-5.285,0-9.57,4.278-9.583,9.561
					C606.409,317.099,612.678,315.643,618.531,314.11z"/>
				<polyline fill="none" stroke="#AA4944" stroke-width="0.5974" stroke-linecap="round" stroke-miterlimit="10" points="
					618.206,264.716 616.909,266.509 618.831,267.082 				"/>
				
					<line fill="none" stroke="#AA4944" stroke-width="0.5974" stroke-linecap="round" stroke-miterlimit="10" x1="628.801" y1="267.952" x2="633.11" y2="265.69"/>
				<path opacity="0.34" fill="#FFFFFF" d="M624.075,257.576c-0.934,5.233-3.925,2.99-4.112-2.43c0,0-4.299,5.98-5.98,11.961
					c-1.682,5.98,0,6.167,0,6.167s2.186,0.872,5.717,0.349c3.711-3.042,6.28-8.367,7.637-11.772
					C625.941,261.076,624.607,259.778,624.075,257.576z"/>
				<path fill="#FFFFFF" d="M593.094,435.618c0,0.893-0.724,1.616-1.617,1.616h-16.244c-0.893,0-1.616-0.724-1.616-1.616l0,0
					c0-0.893,0.724-1.617,1.616-1.617h16.244C592.37,434.001,593.094,434.725,593.094,435.618L593.094,435.618z"/>
			</g>
		</g>
		<path fill="#FFFFFF" d="M639.295,122.531H507.94l19.089-5.434c0,0,2.457-10.557,8.883-10.557c6.426,0,10.773,6.521,10.773,6.521
			s-0.189-21.891,16.254-21.891c16.443,0,20.034,21.425,20.034,21.425s3.969-10.713,12.852-10.713s12.285,13.662,12.285,13.662
			L639.295,122.531z"/>
	</g>
</g>
</svg>
