<?xml version="1.0" encoding="utf-8"?>
<!-- Generator: Adobe Illustrator 17.0.0, SVG Export Plug-In . SVG Version: 6.00 Build 0)  -->
<!DOCTYPE svg PUBLIC "-//W3C//DTD SVG 1.1//EN" "http://www.w3.org/Graphics/SVG/1.1/DTD/svg11.dtd">
<svg version="1.1" id="Слой_1" xmlns="http://www.w3.org/2000/svg" xmlns:xlink="http://www.w3.org/1999/xlink" x="0px" y="0px"
	 width="4226.95px" height="2000px" viewBox="0 0 4226.95 2000" enable-background="new 0 0 4226.95 2000" xml:space="preserve">
<g>
	<rect x="-0.001" y="0" display="none" fill="#FFFFFF" width="4226.95" height="2000"/>
	<path fill="#E3EAFF" d="M375.768,1840.374c-316.892-353.171-136.029-708.271,229.091-909.802
		c371.16-204.864-47.851-628.703,690.883-801.17c382.16-89.221,718.226,154.1,1092.808,164.672
		c335.652,9.474,682.871-205.107,1023.662-105.703c227.9,57.221,455.719,217.806,438.727,409.813
		c-8.779,99.218-86.512,216.67-6.021,292.044c339.703,318.113,304.689,596.362,171.555,945.688
		C4016.507,1835.907,375.768,1840.374,375.768,1840.374z"/>
	<path fill="#95A6DB" d="M4055.957,1853.381H187.48c-9.349,0-16.928-5.372-16.928-12.002l0,0c0-6.629,7.579-12.002,16.928-12.002
		h3868.478c9.349,0,16.927,5.373,16.927,12.002l0,0C4072.884,1848.009,4065.306,1853.381,4055.957,1853.381z"/>
	<g>
		<path fill="#95A6DB" d="M4057.447,1427.404c0,0,21.84,23.804,9.566,78.541c-12.518,55.778,0.441,89.455,0.441,89.455l-17.84,24.51
			c0,0-17.068-51.851-4.877-96.195C4060.064,1468.23,4057.447,1427.404,4057.447,1427.404z"/>
		<path fill="#95A6DB" d="M4127.606,1426.708c0,0,9.587,21.796-9.987,60.087c-20.024,39.008-18.305,66.462-18.305,66.462
			l-15.094,19.451c0,0-2.574-46.323,14.842-76.932C4120.806,1457.484,4127.606,1426.708,4127.606,1426.708z"/>
		<path fill="#95A6DB" d="M4021.291,1491.35c0,0-17.001,19.084-16.202,79.624c0.644,49.335,17.212,71.261,17.431,101.536
			l21.404-38.103c-3.126-20.765-19.419-31.04-22.17-75.748C4019.165,1516.803,4021.291,1491.35,4021.291,1491.35z"/>
		<path fill="#95A6DB" d="M3879.856,1708.741c0,0-3.466,25.395,30.939,75.147c28.047,40.603,52.825,40.957,59.802,50.201
			l4.635-25.004c-16.665-14.588-30.245-9.102-57.46-44.679C3892.275,1731.009,3879.856,1708.741,3879.856,1708.741z"/>
		<path fill="#95A6DB" d="M3982.293,1538.609c0,0-4.318,43.91-1.336,70.535c4.17,37.857,23.396,54.061,30.434,92.424l-14.407,29.484
			c0,0-27.394-35.465-30.669-82.385C3960.81,1569.936,3982.293,1538.609,3982.293,1538.609z"/>
		<path fill="#95A6DB" d="M3916.56,1574.392c9.713,22.769,16.042,46.837,18.788,71.438c7.787,74.61,56.675,118.041,56.675,118.041
			l-9.285,20.344c0,0-55.87-27.049-60.649-89.893C3917.109,1627.904,3916.56,1574.392,3916.56,1574.392z"/>
		<path fill="#95A6DB" d="M4043.592,1639.91c0,0,15.654-10.101,88.8-17.834c46.877-4.938,29.493-19.034,75.519-16.18
			c-32.002,10.604-37.5,37.098-80.834,44.227c-34.66,5.676-68.824,14.061-102.176,25.074L4043.592,1639.91z"/>
		<path fill="#95A6DB" d="M4192.224,1653.545c0,0-19.597,41.691-83.655,52.07c-39.406,6.486-77.478,19.406-112.691,38.246
			l11.509-36.227c0,0,21.622-25.11,89.266-29.506C4143.125,1675.1,4192.224,1653.545,4192.224,1653.545z"/>
		<path fill="#95A6DB" d="M4168.81,1722.287c0,0-19.597,41.691-83.655,52.068c-39.406,6.487-77.478,19.408-112.691,38.246
			l11.509-36.226c0,0,21.622-25.112,89.266-29.505C4119.711,1743.841,4168.81,1722.287,4168.81,1722.287z"/>
		<path fill="#95A6DB" d="M4209.487,1527.709c0,0-15.801,22.957-56.529,27.994c-41.306,5.089-68.859,20.75-68.859,20.75
			l8.528-14.533c0,0,13.666-15.871,56.421-18.663C4178.447,1541.325,4209.487,1527.709,4209.487,1527.709z"/>
		<path fill="#95A6DB" d="M4071.6,1599.907c0,0,30.27-10.47,76.795-17.226c29.338-4.354,63.492-30.701,63.492-30.701
			s-19.758,48.166-64.26,51.979c-51.031,4.357-98.172,22.517-98.172,22.517L4071.6,1599.907z"/>
		<path fill="#95A6DB" d="M4090.74,1567.392c0,0,16.203-46.487,57.559-64.717c24.418-11.013,46.824-26.026,66.294-44.421
			c0,0-14.067,47.355-53.827,59.996c-36.672,11.768-56.777,42.553-56.777,42.553L4090.74,1567.392z"/>
		<path fill="#95A6DB" d="M3974.264,1833.996l-7.135-1.176c7.264-44.002,51.902-191.932,131.418-279.221l5.346,4.874
			C4025.486,1644.56,3981.451,1790.558,3974.264,1833.996z"/>
	</g>
	<g>
		<path fill="#95A6DB" d="M192.197,1182.809c0,0-25.157,25.119-14.296,85.896c11.081,61.93-4.786,98.337-4.786,98.337l18.438,27.806
			c0,0,21.259-56.189,9.988-105.533C187.356,1227.57,192.197,1182.809,192.197,1182.809z"/>
		<path fill="#95A6DB" d="M115.09,1178.668c0,0-11.589,23.504,8.091,66.547c20.142,43.854,16.931,73.955,16.931,73.955l15.66,22.113
			c0,0,5.059-50.808-12.619-85.301C121.087,1212.834,115.09,1178.668,115.09,1178.668z"/>
		<path fill="#95A6DB" d="M228.877,1254.856c0,0,17.775,21.8,13.986,88.325c-3.08,54.213-22.352,77.527-24.048,110.803
			l-21.702-42.924c4.436-22.682,22.844-33.193,28.019-82.22C229.991,1282.943,228.877,1254.856,228.877,1254.856z"/>
		<path fill="#95A6DB" d="M373.935,1500.684c0,0,2.589,28.09-37.633,81.139c-32.79,43.293-60.053,42.494-68.166,52.32l-3.895-27.715
			c19.024-15.237,33.692-8.551,65.327-46.363C359.209,1524.568,373.935,1500.684,373.935,1500.684z"/>
		<path fill="#95A6DB" d="M269.484,1308.693c0,0,2.638,48.486-1.923,77.619c-6.405,41.426-28.324,58.314-37.907,100.158
			l14.423,33.113c0,0,31.825-37.68,37.685-89.108C291.6,1344.17,269.484,1308.693,269.484,1308.693z"/>
		<path fill="#95A6DB" d="M340.039,1351.197c-11.774,24.57-19.892,50.729-24.094,77.646c-12.15,81.66-70.73,129.455-70.73,129.455
			l11.97,20.422c0,0,62.732-27.053,71.009-95.922C336.861,1410.01,340.039,1351.197,340.039,1351.197z"/>
		<path fill="#95A6DB" d="M197.214,1417.129c0,0-16.727-11.859-96.78-23.879c-51.305-7.684-31.514-22.348-82.256-21.422
			c34.677,13.198,39.448,42.594,86.751,52.515c37.838,7.909,74.998,18.769,111.139,32.483L197.214,1417.129z"/>
		<path fill="#95A6DB" d="M33.134,1424.975c0,0,19.542,46.782,89.477,61.273c43.017,9.026,84.256,25.064,122.067,47.473
			l-10.912-40.387c0,0-22.566-28.65-96.73-36.734C86.082,1451.033,33.134,1424.975,33.134,1424.975z"/>
		<path fill="#95A6DB" d="M55.572,1501.682c0,0,19.542,46.783,89.477,61.275c43.017,9.025,84.256,25.064,122.067,47.471
			l-10.911-40.385c0,0-22.566-28.65-96.732-36.733C108.521,1527.742,55.572,1501.682,55.572,1501.682z"/>
		<path fill="#95A6DB" d="M20.203,1285.783c0,0,16.269,26.002,60.809,33.5c45.172,7.58,74.715,26.125,74.715,26.125l-8.679-16.389
			c0,0-14.263-18.109-61.139-23.234C53.678,1302.246,20.203,1285.783,20.203,1285.783z"/>
		<path fill="#95A6DB" d="M168.342,1371.795c0,0-32.779-12.965-83.609-22.631c-32.049-6.197-68.336-36.808-68.336-36.808
			s19.409,53.909,68.156,60.241c55.9,7.244,106.86,29.478,106.86,29.478L168.342,1371.795z"/>
		<path fill="#95A6DB" d="M148.86,1335.126c0,0-15.581-51.894-60.175-73.929c-26.318-13.281-50.232-30.865-70.756-52.027
			c0,0,13.188,52.744,56.298,68.557c39.757,14.701,60.383,49.518,60.383,49.518L148.86,1335.126z"/>
		<path fill="#95A6DB" d="M264.109,1633.865l7.9-0.951c-5.871-48.73-47.838-213.528-131.069-313.328l-6.114,5.102
			C216.897,1423.111,258.295,1585.757,264.109,1633.865z"/>
	</g>
	<g>
		<g>
			<path fill="#4364CC" d="M2915.824,1634.314l-42.205,196.018c-1.125,5.23-3.002,8.361-5.011,8.361l0,0
				c-3.721,0-6.561-10.459-5.978-22.018l9.188-182.361H2915.824z"/>
			<path fill="#4364CC" d="M3990.544,1634.314l42.204,196.018c1.127,5.23,3.004,8.361,5.012,8.361l0,0
				c3.721,0,6.561-10.459,5.979-22.018l-9.189-182.361H3990.544z"/>
			<path fill="#4364CC" d="M3663.35,1634.314l42.204,196.018c1.126,5.23,3.003,8.361,5.012,8.361l0,0
				c3.72,0,6.561-10.459,5.978-22.018l-9.188-182.361H3663.35z"/>
			<path fill="#768FDB" d="M3356.322,1669.639h-450.203c-26.111,0-47.277-21.168-47.277-47.279v-240.335
				c0-20.304,16.458-36.763,36.761-36.763h460.72V1669.639z"/>
			<path fill="#4364CC" d="M3450.707,1669.639h-450.203c-26.11,0-47.277-21.168-47.277-47.279v-240.335
				c0-20.304,16.459-36.763,36.762-36.763h460.719V1669.639z"/>
			<path fill="#768FDB" d="M3981.564,1427.299h-804.928v-169.014c0-19.486,15.797-35.285,35.285-35.285h769.643V1427.299z"/>
			<path fill="#95ADF5" d="M4036.313,1421.744H2995.497c-23.806,0-43.104,19.301-43.104,43.105v49.713h1083.921V1421.744z"/>
			<rect x="2952.393" y="1503.777" fill="#768FDB" width="1083.921" height="166.099"/>
			<path fill="#4364CC" d="M4036.217,1427.299h-109.303V1223h74.018c19.488,0,35.285,15.799,35.285,35.285V1427.299z"/>
		</g>
		<g>
			<path fill="#F37A50" d="M2951.009,1788.002l-35.06,11.416l-16.688-30.794c1.441-1.222,2.369-22.493,2.727-38.663l58.096,4.099
				C2958.343,1750.465,2955.004,1771.992,2951.009,1788.002z"/>
			<g>
				<g>
					<path fill="#2C2858" d="M2889.322,1810.93c0,0-13.715-19.912-29.43-20.173c0,0-29.375,3.657-38.891,16.749
						c-2.99,4.111-1.187,12.338,0.454,17.574c1.024,3.27,4.081,6.688,12.979,8.848c13.145,3.191,30.672,4.515,62.104-5.914
						c37.708-12.506,44.106-8.82,57.982-14.336c14.382-5.717,8.46-23.367,3.282-40.596
						C2957.805,1773.082,2948.537,1795.209,2889.322,1810.93z"/>
				</g>
				<g>
					<g>
						<path fill="#4364CC" d="M2898.089,1765.58c0,0-16.434,11.516-38.485,18.152c-12.336,3.711-45.299,12.418-38.436,34.325
							c1.023,3.269,4.081,6.687,12.979,8.847c13.144,3.191,30.671,4.514,62.104-5.912c37.708-12.508,44.105-8.822,57.982-14.338
							c14.381-5.715,6.237-25.654,1.061-42.885l0,0c-0.066,4.465-1.344,16.257-27.308,28.475
							C2920.236,1795.893,2924.396,1760.359,2898.089,1765.58z"/>
					</g>
				</g>
			</g>
			<path fill="#F37A50" d="M3090.139,1783.914l-34.17,13.855l-18.813-29.546c1.352-1.319,0.779-22.603,0-38.757h58.238
				C3094.813,1745.955,3092.996,1767.662,3090.139,1783.914z"/>
			<path fill="#8A284C" d="M3122.666,1390.526c-78.689,19.866-188.384,79.019-198.76,91.501
				c-21.434,25.785-23.157,109.934-24.115,259.191h63.795c17.988-117.751,41.056-169.955,41.863-217.343
				c0,0,61.375,0.148,150.936-41.464c44.15-20.512,90.013-44.068,73.688-84.1
				C3217.066,1366.416,3197.696,1371.582,3122.666,1390.526z"/>
			<path fill="#E62552" d="M3209.797,1383.295c-65.729,11.256-148.951,92.881-159.328,105.364
				c-21.434,25.784-12.355,108.781-13.313,258.038h60.223c6.098-77.701,36.18-166.289,32.313-222.783
				c0,0,64.686-9.594,154.246-51.203c44.149-20.514,88.977-18.475,78.278-69.76
				C3355.182,1369.23,3286.072,1370.234,3209.797,1383.295z"/>
			<g>
				<g>
					<g>
						<g>
							<path fill="#F37A50" d="M3014.906,1115.261c16.623-16.771,5.719-33.968,5.719-33.968c9.122-1.957,57.248,70.947,78,117.275
								c36.197-36.484,99.979-85.75,117.225-88.623c0,0,23.268-6.253,31.629,21.877c7.462,25.106-21.641,42.898-21.641,42.898
								s-124.496,87.895-142.907,80.081C3054.279,1242.645,3028.35,1138.033,3014.906,1115.261z"/>
						</g>
					</g>
				</g>
				<g>
					<g>
						<g>
							<g>
								<path fill="#F37A50" d="M2988.912,1113.186c10.158,0.622,22.722-4.4,26.636,4.707l20.05-9.775l1.213-12.09
									c-17.229-27.604-59.223-35.439-63.381-35.804c-10.803-0.949-15.818-2.063-16.662-0.62
									c-0.844,1.445-3.49,11.063,12.184,12.945c19.672,2.362,6.613,18.087-33.294,3.117c-9.991-3.748-28.797,1.117-21.995,8.42
									C2921.156,1092.133,2942.689,1110.369,2988.912,1113.186z"/>
							</g>
						</g>
					</g>
				</g>
			</g>
			<path fill="#2C2858" d="M3209.865,1130.491c-30.986-4.301-80.255-17.608-59.473-65.35c20.783-47.741,23.857-29.47,2.566-77.625
				c-21.29-48.154,6.166-95.377,42.453-92.565c36.285,2.812,50.85,28.616,91.249,12.766c40.399-15.851,83.489,15.961,74.905,53.258
				c-8.586,37.297-11.861,55.075,6.854,70.763c18.715,15.687,89.412,21.898,71.232,72.795
				c-18.181,50.898-31.461,50.818-16.959,71.871c14.502,21.055-2.135,52.033-41.398,56.584
				c-39.264,4.549-77.197-2.643-100.406-42.65S3209.865,1130.491,3209.865,1130.491z"/>
			<path fill="#3F964F" d="M3143.57,1148.575c26.256-15.902,69.714-60.415,102.752-47.228c33.037,13.188,21.824,53.146,6.015,69.662
				c-15.81,16.518-64.909,54.324-64.909,54.324L3143.57,1148.575z"/>
			<path fill="#0E6A41" d="M3358.227,1393.754c-14.707-75.873-11.109-75.705-17.219-111.412
				c-15.097-88.248,62.627-159.092-50.986-194.063l-50.316,11.146c-48.343,23.87-57.796,66.786-62.559,96.082
				c-9.067,55.755-1.145,138.985-1.145,138.985l-19.017,47.532c0,0,13.198,13.237,75.741,25.052
				C3295.27,1418.892,3358.227,1393.754,3358.227,1393.754z"/>
			<path fill="#F37A50" d="M3369.75,1168.379c12.07,44.694,13.365,192.484,3.126,205.73l-51.832-28.74
				c0,0-24.001-153.862-26.747-179.593C3289.441,1121.23,3350.184,1095.374,3369.75,1168.379z"/>
			<path fill="#3F964F" d="M3293.35,1238.876c-4.814-33.967-11.229-98.9,17.278-120.181c28.507-21.277,55.796,4.652,61.616,26.763
				c5.822,22.11,12.401,83.728,12.401,83.728L3293.35,1238.876z"/>
			
				<ellipse transform="matrix(0.9996 0.0267 -0.0267 0.9996 28.1322 -86.4477)" fill="#F37A50" cx="3252.926" cy="1010.782" rx="57.069" ry="72.662"/>
			<path fill="#F37A50" d="M3299.697,1035.488l-43.307,41.428c0,0,0.233,22.96-0.463,30.572
				c-1.438,15.709,17.377,18.465,30.189,6.166c12.813-12.298,13.973-25.375,13.973-25.375L3299.697,1035.488z"/>
			<path fill="#2C2858" d="M3189.365,995.402c14.419-1.774,44.582-10.721,52.967-26.353c13.672,25.255,53.002,43.73,83.593,49.827
				c-4.718-27.881-15.673-78.687-69.688-89.338C3213.803,921.17,3189.365,995.402,3189.365,995.402z"/>
			<circle cx="3206.077" cy="1017.003" r="5.481"/>
			<circle cx="3250.626" cy="1016.315" r="5.933"/>
			<g>
				<path fill="#2C2858" d="M3261.771,1011.642c-0.438-0.114-0.841-0.372-1.133-0.762c-4.235-5.663-12.355-5.223-12.438-5.218
					c-1.134,0.07-2.115-0.791-2.189-1.926c-0.074-1.135,0.781-2.115,1.916-2.191c0.422-0.029,10.418-0.62,16.016,6.864
					c0.682,0.911,0.496,2.204-0.416,2.888C3263.004,1011.685,3262.357,1011.793,3261.771,1011.642z"/>
			</g>
			<g>
				<path fill="#2C2858" d="M3198.713,1011.018c-0.215-0.057-0.424-0.146-0.619-0.275c-0.951-0.629-1.213-1.908-0.586-2.859
					c4.872-7.386,12.996-6.467,13.339-6.423c1.128,0.14,1.934,1.171,1.792,2.301c-0.14,1.129-1.165,1.93-2.292,1.794
					c-0.267-0.028-5.968-0.594-9.394,4.602C3200.453,1010.912,3199.543,1011.232,3198.713,1011.018z"/>
			</g>
			<path fill="#DE623C" d="M3217.965,1027.25c-2.302,3.65-4.225,7.314-6.658,9.678c-0.821,0.799-0.858,2.123-0.102,2.981
				c3.119,3.544,10.445,5.456,14.873,6.323c0.646,0.127,0.969-0.752,0.395-1.074c-4.861-2.73-7.183-5.006-8.229-6.302
				c-0.521-0.647-0.69-1.498-0.478-2.299c0.49-1.839,1.447-5.58,1.988-8.624C3219.939,1026.883,3218.535,1026.348,3217.965,1027.25z
				"/>
			
				<ellipse transform="matrix(-0.764 -0.6452 0.6452 -0.764 5171.2729 3940.6311)" fill="#F37A50" cx="3306.278" cy="1024.621" rx="13.983" ry="17.087"/>
			<g>
				<path fill="#DE623C" d="M3303.83,1034.055c-0.301-0.077-0.588-0.227-0.838-0.443c-3.585-3.133-4.732-7.258-3.068-11.041
					c1.703-3.871,5.859-6.357,9.884-5.91c1.133,0.127,1.948,1.147,1.822,2.28c-0.126,1.133-1.146,1.946-2.278,1.821
					c-2.205-0.244-4.688,1.28-5.65,3.471c-0.926,2.105-0.214,4.332,2.006,6.27c0.857,0.75,0.946,2.056,0.196,2.912
					C3305.372,1034.023,3304.563,1034.244,3303.83,1034.055z"/>
			</g>
			<path fill="#F37A50" d="M3324.945,1341.154c14.963-4.742,49.642,27.746,48.432,33.1
				c-44.527,81.684-158.621,115.225-158.621,115.225l-19.939-15.061C3194.816,1474.418,3271.648,1409.724,3324.945,1341.154z"/>
			<path fill="#F37A50" d="M3214.756,1489.479c-2.221,21.309-33.957,49.079-61.727,51.063s-18.843-24.795-7.934-31.738
				c10.909-6.941,26.62-13.854,22.732-19.324c-3.889-5.469-10.843-4.027-15.79-10.428c-4.416-5.713,17.209-16.984,42.778-4.633
				C3203.43,1480.925,3214.756,1489.479,3214.756,1489.479z"/>
			
				<ellipse transform="matrix(0.9784 -0.2069 0.2069 0.9784 -149.483 691.2099)" fill="#FFFFFF" cx="3229.874" cy="1060.271" rx="7.698" ry="7.046"/>
			<g>
				<g>
					<path fill="#2C2858" d="M3030.219,1811.126c0,0-15.083-18.897-30.777-18.054c0,0-29.045,5.715-37.616,19.443
						c-2.692,4.313-0.314,12.394,1.69,17.5c1.251,3.189,4.541,6.385,13.57,7.912c13.336,2.258,30.913,2.344,61.533-10.268
						c36.735-15.131,43.377-11.901,56.83-18.381c13.944-6.715,6.795-23.903,0.418-40.727
						C3095.867,1768.553,3088.18,1791.277,3030.219,1811.126z"/>
				</g>
				<g>
					<g>
						<path fill="#4364CC" d="M3035.771,1765.271c0,0-15.582,12.645-37.111,20.814c-12.045,4.571-44.314,15.576-35.927,36.945
							c1.252,3.188,4.542,6.383,13.57,7.912c13.336,2.258,30.913,2.344,61.534-10.269c36.734-15.13,43.377-11.903,56.83-18.382
							c13.944-6.713,4.418-26.029-1.959-42.853l0,0c0.248,4.458-0.197,16.312-25.236,30.325
							C3059.996,1793.949,3061.646,1758.213,3035.771,1765.271z"/>
					</g>
				</g>
			</g>
		</g>
		<g id="c_27_">
			<path fill="#E86686" d="M3550.578,1098.318c-39.684,12.056-59.436,95.598-76.332,183.047
				c-27.066,53.223-47.282,94.148-73.254,147.813c24.246,5.492,44.326-9.777,44.326-9.777s61.664-56.659,90.264-118.986
				c6.545-14.264,8.777-42.967,12.485-55.724C3549.695,1204.701,3550.578,1098.318,3550.578,1098.318z"/>
			<path fill="#F37A50" d="M3341.28,1788.174l-35.06,11.417l-16.688-30.798c1.441-1.221,2.368-22.492,2.727-38.66l58.095,4.098
				C3348.614,1750.637,3345.275,1772.162,3341.28,1788.174z"/>
			<g>
				<g>
					<path fill="#201D40" d="M3279.594,1811.102c0,0-13.715-19.911-29.43-20.175c0,0-29.375,3.659-38.892,16.749
						c-2.989,4.113-1.186,12.34,0.455,17.576c1.024,3.27,4.081,6.688,12.979,8.848c13.145,3.191,30.672,4.514,62.104-5.914
						c37.708-12.508,44.106-8.82,57.982-14.336c14.382-5.717,8.46-23.367,3.282-40.596
						C3348.076,1773.254,3338.809,1795.381,3279.594,1811.102z"/>
				</g>
				<g>
					<g>
						<path fill="#2C2858" d="M3288.359,1765.752c0,0-16.433,11.516-38.484,18.152c-12.336,3.711-45.299,12.418-38.436,34.324
							c1.023,3.27,4.08,6.688,12.979,8.848c13.144,3.191,30.672,4.514,62.104-5.914c37.708-12.508,44.105-8.819,57.982-14.336
							c14.381-5.717,6.237-25.654,1.061-42.884l0,0c-0.066,4.465-1.345,16.255-27.308,28.474
							C3310.508,1796.064,3314.668,1760.531,3288.359,1765.752z"/>
					</g>
				</g>
				<g>
					<path fill="#494C7F" d="M3295.135,1792.244c-1.283,0-2.477-0.819-2.889-2.109c-3.436-10.709-14.742-10.726-15.221-10.727
						c-1.671,0.014-3.048-1.324-3.07-2.996c-0.021-1.671,1.305-3.045,2.976-3.074c5.61-0.109,17.231,2.898,21.096,14.943
						c0.513,1.596-0.366,3.305-1.963,3.816C3295.756,1792.197,3295.442,1792.244,3295.135,1792.244z"/>
				</g>
				<g>
					<path fill="#494C7F" d="M3281.448,1798.82c-1.284,0-2.477-0.822-2.89-2.109c-3.436-10.709-14.742-10.727-15.221-10.729
						c-1.67,0.016-3.047-1.323-3.069-2.994c-0.022-1.672,1.304-3.046,2.976-3.076c5.61-0.109,17.23,2.898,21.096,14.943
						c0.512,1.598-0.367,3.307-1.964,3.819C3282.068,1798.771,3281.756,1798.82,3281.448,1798.82z"/>
				</g>
			</g>
			<path fill="#F37A50" d="M3481.492,1792.308l-34.17,13.854l-18.812-29.545c1.351-1.32,4.882-23.958,4.103-40.113l54.137,1.355
				C3486.168,1754.348,3484.351,1776.057,3481.492,1792.308z"/>
			<path fill="#201D40" d="M3512.938,1390.697c-78.689,19.867-188.384,79.02-198.76,91.502
				c-21.434,25.785-27.156,109.934-28.113,259.192h70.026c17.989-117.753,38.822-169.956,39.63-217.345
				c0,0,61.375,0.148,150.936-41.463c44.15-20.511,90.013-44.068,73.688-84.1
				C3607.338,1366.588,3587.968,1371.754,3512.938,1390.697z"/>
			<path fill="#2C2858" d="M3602.498,1391.689c-65.729,11.254-148.951,92.879-159.328,105.361
				c-21.434,25.785-18.81,108.783-19.768,258.04l69.81,1.769c6.099-77.701,33.048-168.059,29.181-224.552
				c0,0,61.207-17.608,155.898-45.647c51.799-15.336,67.035-24.535,74.802-59.549c2.642-11.912,5.474-39.291-0.177-44.98
				C3727.91,1356.955,3664.713,1381.035,3602.498,1391.689z"/>
			<g>
				<g>
					<path fill="#201D40" d="M3421.572,1819.518c0,0-15.082-18.896-30.776-18.053c0,0-29.045,5.715-37.616,19.445
						c-2.692,4.311-0.314,12.391,1.689,17.5c1.252,3.188,4.543,6.383,13.57,7.912c13.336,2.258,30.914,2.344,61.535-10.27
						c36.734-15.128,43.376-11.902,56.83-18.379c13.943-6.715,6.794-23.904,0.417-40.729
						C3487.222,1776.945,3479.535,1799.67,3421.572,1819.518z"/>
				</g>
				<g>
					<g>
						<path fill="#2C2858" d="M3427.126,1773.664c0,0-15.582,12.646-37.112,20.814c-12.045,4.572-44.313,15.576-35.926,36.946
							c1.252,3.188,4.541,6.383,13.57,7.911c13.336,2.258,30.913,2.344,61.534-10.268c36.735-15.131,43.376-11.902,56.83-18.381
							c13.944-6.714,4.417-26.03-1.96-42.854l0,0c0.249,4.458-0.197,16.311-25.236,30.325
							C3451.351,1802.344,3453.002,1766.605,3427.126,1773.664z"/>
					</g>
				</g>
				<g>
					<path fill="#494C7F" d="M3441.684,1800.385c-1.283,0-2.477-0.82-2.889-2.108c-3.436-10.71-14.742-10.728-15.221-10.728
						c-1.671,0.016-3.047-1.323-3.07-2.996c-0.021-1.67,1.305-3.044,2.977-3.074c5.609-0.109,17.23,2.898,21.095,14.943
						c0.513,1.596-0.366,3.305-1.963,3.818C3442.304,1800.338,3441.991,1800.385,3441.684,1800.385z"/>
				</g>
				<g>
					<path fill="#494C7F" d="M3427.996,1806.961c-1.283,0-2.476-0.822-2.889-2.109c-3.436-10.709-14.742-10.726-15.221-10.728
						c-1.67,0.015-3.047-1.323-3.069-2.995c-0.022-1.671,1.304-3.047,2.976-3.076c5.61-0.109,17.23,2.898,21.096,14.943
						c0.512,1.598-0.367,3.307-1.964,3.818C3428.617,1806.914,3428.305,1806.961,3427.996,1806.961z"/>
				</g>
			</g>
			<g>
				<polygon id="v-2_9_" fill="#F37A50" points="3649.278,1031.453 3649.246,1031.453 3622.781,1031.551 3616.787,1094.061 
					3647.682,1110.374 3680.627,1094.244 3675.303,1031.551 				"/>
				<g>
					<g>
						<path fill="#2C2858" d="M3661.263,1021.96c22.194,9.622,43.022-16.164,43.022-16.164c14.794,1.89,16.619-12.859,16.619-12.859
							c7.301-0.048,18.36-4.56,19.313-18.18c0.805-11.532-9.943-14.195-7.52-27.259c1.944-10.481,16.682-33.186-15.152-44.812
							c0,0,4.851-19.112-13.268-29.448c-22.213-12.672-32.406-0.095-43.639-0.65c-12.546-0.621-34.457-18.887-45.826,7.184
							c0,0-16.801-4.603-28.103,5.245c-10.53,9.174-10.667,24.886-7.454,31.638c0,0-14.74,0.555-21.605,12.309
							c-4.604,7.881-4.578,19.852,2.291,27.713c4.369,5.002,9.389,6.847,9.389,6.847c5.198,2.526,1.164,17.26,5.132,21.528
							c6.368,6.85,13.804,12.563,21.579,17.65L3661.263,1021.96z"/>
						<path fill="#F37A50" d="M3709.232,991.26c-7.42,43.208-46.531,75.997-80.468,70.169
							c-33.937-5.827-49.846-48.064-42.426-91.273c7.42-43.208,40.945-73.512,74.882-67.683
							C3695.156,908.301,3716.652,948.052,3709.232,991.26z"/>
						<circle cx="3597.203" cy="977.998" r="5.988"/>
						<circle cx="3644.435" cy="986.333" r="6.482"/>
						<path fill="#DE623C" d="M3613.615,987.758c-6.583,7.935-14.872,17.58-14.872,17.58s1.938,9.564,13.977,11.319
							c-4.819-2.798-9.401-6.911-6.404-13.433S3613.615,987.758,3613.615,987.758z"/>
						<g>
							<path fill="#2C2858" d="M3661.138,982.56c0.225-0.049,0.446-0.123,0.663-0.226c1.49-0.711,2.121-2.494,1.412-3.984
								c-1.939-4.067-7.963-11.266-16.883-9.404c-1.623,0.364-2.651,1.921-2.314,3.536c0.337,1.615,1.92,2.651,3.535,2.313
								c6.605-1.379,10.231,6.051,10.268,6.126C3658.425,982.195,3659.816,982.842,3661.138,982.56z"/>
						</g>
						<g>
							<path fill="#2C2858" d="M3606.21,966.617c0.419-0.09,0.819-0.289,1.157-0.598c1.016-0.929,1.086-2.503,0.157-3.518
								c-0.146-0.158-3.622-3.895-8.649-3.757c-3.434,0.095-6.616,1.906-9.46,5.384c-0.87,1.064-0.714,2.632,0.352,3.504
								c1.064,0.87,2.634,0.712,3.504-0.353c1.888-2.308,3.819-3.505,5.743-3.558c2.731-0.076,4.816,2.118,4.836,2.14
								C3604.469,966.539,3605.374,966.796,3606.21,966.617z"/>
						</g>
						<path fill="#2C2858" d="M3583.334,917.89l79.46-37.921l68.193,64.341l-26.828,54.917
							c5.782-27.307-13.106-23.482-19.274-33.766c-6.254-10.426-6.364-23.88-29.726-18.858c0,0-13.067-16.055-26.112-2.636
							c-10.085,10.376-18.216,5.44-27.189,3.513c-10.586-2.273-11.065,8.517-17.302,6.339L3583.334,917.89z"/>
						<g>
							
								<ellipse transform="matrix(-0.6612 -0.7502 0.7502 -0.6612 5414.6147 4441.3271)" fill="#F37A50" cx="3710.196" cy="997.998" rx="15.276" ry="18.667"/>
							<g>
								<path fill="#DE623C" d="M3706.039,1007.799c-0.312-0.131-0.599-0.338-0.834-0.612c-3.372-3.957-3.951-8.602-1.547-12.422
									c2.46-3.912,7.351-5.933,11.627-4.804c1.204,0.319,1.922,1.551,1.604,2.754c-0.317,1.204-1.551,1.922-2.755,1.604
									c-2.343-0.618-5.269,0.632-6.661,2.846c-1.338,2.127-0.925,4.648,1.163,7.097c0.808,0.947,0.693,2.371-0.254,3.179
									C3707.711,1008.012,3706.801,1008.121,3706.039,1007.799z"/>
							</g>
						</g>
						
							<ellipse transform="matrix(0.9839 0.1786 -0.1786 0.9839 242.6139 -629.2745)" fill="#FFFFFF" cx="3616.788" cy="1033.029" rx="9.712" ry="8.89"/>
					</g>
				</g>
			</g>
			<g id="v_10_">
				<path id="v-25_6_" fill="#FFD0B7" d="M3704.854,1109.668c-19.22-6.482-39.439-9.495-59.716-8.9
					c-68.671,0-79.185,17.35-79.185,16.945l50.961,139.944l28.224,13.929l30.89-9.152
					C3676.027,1262.434,3716.072,1113.843,3704.854,1109.668z"/>
				<path fill="#F5A3B7" d="M3756.186,1387.934c0,0-55.911,14.316-107.812,14.66c-51.899-0.381-106.757-19.053-106.757-19.053
					s6.975-95.314,6.265-131.917c-1.011-42.03,2.694-97.763,2.694-153.308c0,0,36.813-5.926,57.58-8.486
					c3.375-0.418,6.324-0.739,8.629-0.943c0,0,11.832,24.824,63.388,0c2.709-0.27,6.062-0.254,9.812-0.037
					c21.658,1.295,56.54,9.467,56.54,9.467c0,55.396,2.237,109.684,1.489,151.721
					C3750.319,1287.529,3756.186,1387.934,3756.186,1387.934z"/>
			</g>
			<g id="c_29_">
				<path fill="#F37A50" d="M3619.643,1218.392l-12.565-7.28c0,0-3.478-17.821-23.655-18.252c2.311,7.479,5.639,18.252,5.639,18.252
					s-9.931,7.709-33.486-5.485c-23.025-5.175-13.189,11.614-20.82,12.819c-11.262,1.778,8.208,23.906,31.199,27.293
					c29.748,4.381,33.279-1.709,33.279-1.709l16.834,5.883L3619.643,1218.392z"/>
				<path id="c_30_" fill="#E86686" d="M3735.914,1237.432c-41.997-2.934-113.64-23.678-113.64-23.678
					c-11.465,17.584-8.294,40.941-8.294,40.941c65.22,57.181,163.376,75.664,193.492,61.9
					c27.495-12.563,8.086-179.938-60.949-218.277l-2.393,0.224C3720.464,1138.588,3735.914,1237.432,3735.914,1237.432z"/>
			</g>
			<path id="c_28_" fill="#F37A50" d="M3406.283,1434.086c0.387-0.605,0.627-1.26,0.803-1.932c0.102,0.066,0.195,0.139,0.299,0.205
				c6.081,3.885,13.268,3.494,16.051-0.868c0.457-0.717,0.753-1.5,0.925-2.319c4.472,1.045,8.705-0.033,10.692-3.147
				c0.789-1.239,1.125-2.665,1.084-4.157c4.398,1.334,8.973,0.137,11.197-3.354c2.783-4.363,0.831-10.588-4.359-13.902
				c-5.191-3.314-11.656-2.463-14.439,1.9c-0.705,1.105-1.104,2.329-1.226,3.596c-5.646-2.775-11.763-2.092-14.279,1.854
				c-0.456,0.717-0.753,1.5-0.925,2.318c-4.472-1.045-8.705,0.033-10.693,3.148c-0.732,1.148-1.077,2.461-1.091,3.838
				c-3.851-1.359-7.958-0.385-9.914,2.684c-2.351,3.686-0.703,8.943,3.682,11.741
				C3398.473,1438.491,3403.934,1437.771,3406.283,1434.086z"/>
			<path fill="#E86686" d="M3689.984,1088.85v0.009c-3.586,5.986-8.66,10.516-15.815,14.115c-11.331,5.718-26.729,8.14-36.212,7.4
				c-7.507-0.591-15.834-3.655-21.17-7.882c-5.665-4.498-8.129-10.23-8.631-12.662c3.375-0.418,6.842-0.94,9.146-1.145
				c0,0,11.314,25.025,62.87,0.201C3682.882,1088.617,3686.234,1088.633,3689.984,1088.85z"/>
		</g>
		<path fill="#768FDB" d="M3978.865,1665.967h-330.807c-22.26,0-40.305-18.045-40.305-40.307v-252.73
			c0-17.307,14.031-31.339,31.34-31.339h348.738c17.308,0,31.34,14.032,31.34,31.339v252.73
			C4019.172,1647.922,4001.126,1665.967,3978.865,1665.967z"/>
		<path fill="#4364CC" d="M4036.313,1669.877H3742.15c-20.071,0-36.342-16.271-36.342-36.344V1369.85
			c0-15.607,12.65-28.259,28.258-28.259h302.247V1669.877z"/>
	</g>
	<g>
		<g id="с_22_">
			<path id="с_28_" fill="#4364CC" d="M1347.933,1843.773L1347.933,1843.773c7.629,0,13.814-6.186,13.814-13.814v-244.766h-27.629
				v244.766C1334.118,1837.588,1340.303,1843.773,1347.933,1843.773z"/>
			<path id="с_27_" fill="#4364CC" d="M1250.996,1843.773L1250.996,1843.773c7.629,0,13.814-6.186,13.814-13.814v-244.766h-27.629
				v244.766C1237.181,1837.588,1243.366,1843.773,1250.996,1843.773z"/>
			<path id="с_26_" fill="#4364CC" d="M1123.799,1843.773L1123.799,1843.773c7.63,0,13.814-6.186,13.814-13.814v-244.766h-27.629
				v244.766C1109.984,1837.588,1116.169,1843.773,1123.799,1843.773z"/>
			<path id="с_25_" fill="#4364CC" d="M1026.862,1843.773L1026.862,1843.773c7.629,0,13.814-6.186,13.814-13.814v-244.766h-27.63
				v244.766C1013.047,1837.588,1019.232,1843.773,1026.862,1843.773z"/>
			<rect id="с_24_" x="1003.938" y="1182.162" fill="#768FDB" width="142.784" height="342.4"/>
			<path fill="#95ADF5" d="M1451.171,1557.06H1036.93v-99.418h356.379c31.957,0,57.863,25.905,57.863,57.862V1557.06z"/>
			<path id="с_23_" fill="#4364CC" d="M1036.93,1215.152v298.059c0,3.315,2.687,6.002,6.001,6.002h375.607
				c18.221,0,32.991,14.77,32.991,32.99l0,0c0,18.222-14.771,32.99-32.991,32.99H1036.93h-32.992c-18.22,0-32.99-14.769-32.99-32.99
				v-32.99v-304.061c0-18.221,14.77-32.99,32.99-32.99h0.001C1022.159,1182.162,1036.93,1196.932,1036.93,1215.152z"/>
		</g>
		<g id="c_26_">
			<rect x="1169.778" y="1077.686" fill="#F37A50" width="59.261" height="38.217"/>
			<g>
				<g>
					<g>
						<g>
							<path fill="#F37A50" d="M913.903,1080.492c9.914-7.058,22.934-12.3,22.934-12.3c13.533,21.106,21.356,97.419,33.968,122.044
								c56.34-74.699,105.685-95.314,125.203-98.566c0,0,33.797-8.809,43.259,23.027c8.445,28.414-24.491,48.549-24.491,48.549
								s-140.895,99.475-161.732,90.633C920.618,1240.119,889.698,1165.768,913.903,1080.492z"/>
						</g>
					</g>
				</g>
				<g>
					<g>
						<g>
							<g>
								<path fill="#F37A50" d="M883.117,1089.885c11.496,0.701,25.714-4.98,30.143,5.326l22.691-11.064l2.167-13.995
									c-19.498-31.24-67.819-39.793-72.525-40.208c-12.225-1.074-17.902-2.333-18.856-0.699
									c-0.955,1.633-3.95,12.518,13.79,14.649c22.261,2.673,7.483,20.47-37.681,3.529c-11.309-4.243-32.591,1.263-24.894,9.528
									C806.435,1066.058,830.804,1086.695,883.117,1089.885z"/>
							</g>
						</g>
					</g>
				</g>
				<g>
					<g>
						<g>
							<path fill="#8A284C" d="M907.38,1089.779c9.914-7.057,29.457-21.587,29.457-21.587
								c20.775,28.601,28.565,86.837,33.968,122.044c56.34-74.699,105.685-95.314,125.203-98.566c0,0,33.797-8.809,43.259,23.027
								c8.445,28.414-24.302,61.365-24.302,61.365s-141.968,103.097-162.804,94.254
								C919.734,1256.558,883.175,1175.054,907.38,1089.779z"/>
						</g>
					</g>
				</g>
			</g>
			<g>
				<g>
					<g>
						<g>
							<path fill="#F37A50" d="M1474.737,1080.492c-9.915-7.058-22.933-12.3-22.933-12.3
								c-13.534,21.106-21.356,97.419-33.968,122.044c-56.34-74.699-105.685-95.314-125.203-98.566c0,0-33.797-8.809-43.259,23.027
								c-8.444,28.414,24.492,48.549,24.492,48.549s140.895,99.475,161.732,90.633
								C1468.023,1240.119,1498.942,1165.768,1474.737,1080.492z"/>
						</g>
					</g>
				</g>
				<g>
					<g>
						<g>
							<g>
								<path fill="#F37A50" d="M1505.524,1089.885c-11.497,0.701-25.715-4.98-30.144,5.326l-22.69-11.064l-2.168-13.995
									c19.498-31.24,67.82-39.793,72.525-40.208c12.225-1.074,17.902-2.333,18.857-0.699c0.954,1.633,3.949,12.518-13.791,14.649
									c-22.262,2.673-7.482,20.47,37.682,3.529c11.308-4.243,32.59,1.263,24.892,9.528
									C1582.205,1066.058,1557.836,1086.695,1505.524,1089.885z"/>
							</g>
						</g>
					</g>
				</g>
				<g>
					<g>
						<g>
							<path fill="#8A284C" d="M1484.317,1089.123c-9.914-7.059-32.513-20.931-32.513-20.931
								c-13.534,21.106-26.504,90.72-39.115,115.345c-56.34-74.699-100.539-88.615-120.057-91.867c0,0-33.797-8.809-43.259,23.027
								c-8.444,28.414,22.58,61.365,22.58,61.365s129.33,117.745,159.258,105.939
								C1474.666,1264.859,1508.523,1174.395,1484.317,1089.123z"/>
						</g>
					</g>
				</g>
			</g>
			<g>
				<path fill="#F37A50" d="M1480.722,1765.175l13.993,42.462l39.809-31.018c-1.438-1.223,3.006-29.492,2.672-45.658l-52.51-1.84
					C1482.095,1745.677,1480.722,1765.175,1480.722,1765.175z"/>
				<g>
					<g>
						<path fill="#201D40" d="M1547.036,1811.027c0,0,13.742-19.886,29.453-20.127c0,0,29.363,3.701,38.858,16.803
							c2.983,4.117,1.167,12.34-0.479,17.573c-1.029,3.266-4.09,6.679-12.99,8.825c-13.147,3.17-30.672,4.467-62.082-6.004
							c-37.682-12.559-44.084-8.883-57.949-14.416c-14.371-5.736-8.423-23.374-3.222-40.594
							C1478.625,1773.088,1487.857,1795.226,1547.036,1811.027z"/>
					</g>
					<g>
						<g>
							<path fill="#2C2858" d="M1538.338,1765.676c0,0,16.413,11.537,38.45,18.203c12.328,3.73,45.271,12.482,38.378,34.375
								c-1.028,3.266-4.09,6.68-12.99,8.826c-13.146,3.17-30.671,4.467-62.082-6.004c-37.682-12.559-44.084-8.883-57.95-14.416
								c-14.37-5.735-6.198-25.66-0.998-42.877l0,0c0.06,4.463,1.32,16.254,27.26,28.509
								C1516.152,1795.949,1512.044,1760.418,1538.338,1765.676z"/>
						</g>
					</g>
					<g>
						<path fill="#494C7F" d="M1531.525,1792.152c1.283,0.002,2.477-0.816,2.893-2.104c3.449-10.703,14.754-10.704,15.232-10.705
							c1.67,0.02,3.049-1.317,3.073-2.988c0.025-1.672-1.299-3.047-2.97-3.079c-5.609-0.117-17.232,2.872-21.112,14.909
							c-0.515,1.596,0.361,3.306,1.957,3.821C1530.907,1792.105,1531.219,1792.152,1531.525,1792.152z"/>
					</g>
					<g>
						<path fill="#494C7F" d="M1545.2,1798.746c1.284,0.002,2.478-0.816,2.893-2.104c3.451-10.702,14.754-10.703,15.232-10.703
							c1.671,0.018,3.049-1.32,3.073-2.99c0.024-1.672-1.299-3.047-2.97-3.08c-5.609-0.117-17.232,2.873-21.113,14.91
							c-0.514,1.597,0.363,3.305,1.958,3.82C1544.58,1798.697,1544.893,1798.746,1545.2,1798.746z"/>
					</g>
				</g>
				<path fill="#201D40" d="M1318.144,1397.624c78.165,21.772,193.254,84.454,203.322,97.184
					c20.793,26.294,11.438,99.474,19.144,262.731l-64.063-1.711c-14.467-125.799-44.843-174.687-44.496-222.068
					c0,0-61.347-1.348-149.848-45.118c-43.627-21.579-88.892-46.239-71.6-85.854
					C1224.379,1371.226,1243.613,1376.859,1318.144,1397.624z"/>
				<path fill="#F37A50" d="M1341.561,1792.906l37.657,21.357l18.176-30.04c-1.42-1.245-5.002-31.077-5.094-47.245l-50.401,3.986
					C1343.367,1757.395,1337.832,1776.836,1341.561,1792.906z"/>
				<path fill="#2C2858" d="M1234.683,1400.229c91.265,12.234,157.75,103.013,165.021,117.521
					c14.793,29.518-7.199,89.123,1.797,238.078l-67.384-4.43c-10.273-77.241-26.875-137.598-26.059-194.203
					c0,0-47.883-35.18-143.926-58.069c-52.538-12.522-68.245-20.886-77.884-55.421c-3.279-11.75-7.582-38.931-2.246-44.915
					C1107.609,1372.31,1172.136,1391.844,1234.683,1400.229z"/>
				<g>
					<g>
						<path fill="#201D40" d="M1395.726,1827.604c0,0,17.633-16.535,33.041-13.449c0,0,27.918,9.821,34.43,24.633
							c2.045,4.653-1.465,12.307-4.181,17.074c-1.696,2.975-5.409,5.665-14.562,5.883c-13.518,0.32-30.922-2.115-59.412-18.984
							c-34.177-20.238-41.212-17.998-53.594-26.335c-12.835-8.644-3.295-24.628,5.427-40.358
							C1336.875,1776.066,1341.222,1799.654,1395.726,1827.604z"/>
					</g>
					<g>
						<path fill="#494C7F" d="M1378.57,1805.789c1.271,0.185,2.568-0.457,3.162-1.672c4.935-10.105,16.124-8.5,16.598-8.434
							c1.65,0.257,3.205-0.873,3.466-2.523c0.262-1.65-0.854-3.199-2.502-3.468c-5.536-0.913-17.465,0.396-23.016,11.761
							c-0.736,1.506-0.111,3.323,1.396,4.059C1377.963,1805.654,1378.266,1805.744,1378.57,1805.789z"/>
					</g>
					<g>
						<path fill="#494C7F" d="M1391.17,1814.259c1.271,0.184,2.568-0.458,3.162-1.675c4.935-10.104,16.124-8.498,16.598-8.432
							c1.65,0.256,3.205-0.873,3.467-2.523c0.262-1.65-0.854-3.201-2.503-3.469c-5.536-0.912-17.465,0.397-23.016,11.762
							c-0.736,1.505-0.111,3.322,1.395,4.059C1390.563,1814.121,1390.866,1814.213,1391.17,1814.259z"/>
					</g>
				</g>
			</g>
			<g id="v_9_">
				<path id="h-5_5_" fill="#E62552" d="M1096.008,1091.67c0,0,47.675-7.327,67.865-4.24c37.146,31.258,70.877,0,70.877,0
					c22.652-0.757,57.882,4.24,57.882,4.24c0,62.107,31.602,311.39,31.602,311.39s-29.096,35.165-124.805,35.165
					c-58.034-0.377-119.267-14.516-119.267-14.516S1096.008,1153.611,1096.008,1091.67z"/>
			</g>
			<g>
				<path fill="#2C2858" d="M1148.004,1062.757c-32.166,3.819-48.979-37.261-48.979-37.261
					c-19.702-3.255-16.379-22.875-16.379-22.875c-9.347-2.866-21.801-12.901-17.79-30.738c3.396-15.102,18.207-14.391,20.115-32.077
					c1.531-14.191-8.652-48.977,36.646-51.662c0,0,1.119-26.378,28.329-32.678c33.36-7.724,41.606,12.325,56.228,15.926
					c16.331,4.021,51.452-10.993,56.023,26.815c0,0,23.318,0.548,34.033,17.521c9.984,15.813,4.125,36.018-2.589,43.445
					c0,0,18.694,6.373,22.987,24.087c2.879,11.877-1.753,27.223-13.582,34.668c-7.527,4.738-14.675,5.176-14.675,5.176
					c-7.637,1.244-8.122,21.693-14.85,25.645c-10.8,6.34-22.531,10.813-34.46,14.354L1148.004,1062.757z"/>
				<path fill="#F37A50" d="M1271.647,984.223c3.708,55.47-26.737,102.672-68.001,105.432c-41.263,2.758-77.72-39.973-81.428-95.442
					c-3.708-55.47,29.288-91.298,70.551-94.056C1234.033,897.398,1267.939,928.753,1271.647,984.223z"/>
				<circle cx="1166.403" cy="1004.808" r="7.958"/>
				<circle cx="1229.688" cy="1000.578" r="7.958"/>
				<path fill="#DE623C" d="M1206.408,1012.606c10.766,6.717,14.172,9.542,18.299,11.747c-2.124,9.353-16.2,14.865-20.361,14.08
					c9.687-5.605,10.65-12.389,10.65-12.389L1206.408,1012.606z"/>
				
					<ellipse transform="matrix(0.8308 -0.5566 0.5566 0.8308 -374.676 795.0461)" fill="#F37A50" cx="1120.113" cy="1013.677" rx="18.581" ry="25.074"/>
				<g>
					<path fill="#DE623C" d="M1127.949,1025.143c-0.33,0.023-0.669-0.019-1.001-0.134c-1.331-0.46-2.036-1.911-1.577-3.241
						c1.528-4.42,1.338-7.881-0.564-10.285c-2.937-3.715-9.337-4.494-13.916-4.035c-1.399,0.144-2.649-0.881-2.79-2.281
						c-0.14-1.4,0.881-2.648,2.281-2.789c6.146-0.617,14.213,0.619,18.423,5.943c2.097,2.653,4.04,7.428,1.383,15.111
						C1129.843,1024.43,1128.94,1025.076,1127.949,1025.143z"/>
				</g>
				<path fill="#2C2858" d="M1096.008,954.709l88.284-74.021l99.964,48.519l-10.822,71.624
					c-3.166-32.929-23.163-21.894-33.791-31.331c-10.773-9.566-15.679-24.739-40.308-10.759c0,0-20.48-13.512-30.46,6.295
					c-7.717,15.316-18.663,12.624-29.495,13.632c-12.777,1.191-9.485,13.562-17.311,13.314L1096.008,954.709z"/>
				<g>
					<path fill="#2C2858" d="M1240.13,989.456c-11.543,0-17.8-7.027-18.097-7.368c-1.284-1.477-1.126-3.715,0.351-5
						c1.471-1.278,3.696-1.128,4.983,0.332c0.285,0.315,6.042,6.494,16.858,4.575c1.928-0.343,3.767,0.943,4.108,2.871
						c0.342,1.927-0.942,3.767-2.87,4.108C1243.576,989.31,1241.798,989.456,1240.13,989.456z"/>
				</g>
				<g>
					<path fill="#2C2858" d="M1155.775,989.456c11.543,0,17.8-7.027,18.097-7.368c1.284-1.477,1.126-3.715-0.351-5
						c-1.471-1.278-3.696-1.128-4.983,0.332c-0.285,0.315-6.042,6.494-16.857,4.575c-1.928-0.343-3.767,0.943-4.108,2.871
						c-0.342,1.927,0.943,3.767,2.87,4.108C1152.329,989.31,1154.108,989.456,1155.775,989.456z"/>
				</g>
				<ellipse fill="#FFFFFF" cx="1207.277" cy="1058.862" rx="14.453" ry="10.903"/>
			</g>
		</g>
	</g>
	<g>
		<g>
			<path fill="#4364CC" d="M853.959,1693.488l42.204,134.569c1.126,3.589,3.004,5.741,5.012,5.741l0,0
				c3.721,0,6.56-7.182,5.979-15.115l-9.189-125.195H853.959z"/>
			<path fill="#4364CC" d="M464.71,1693.488l-42.204,134.569c-1.126,3.589-3.004,5.741-5.012,5.741l0,0
				c-3.721,0-6.561-7.182-5.978-15.115l9.189-125.195H464.71z"/>
			<path fill="#4364CC" d="M263.957,1693.488l-42.204,134.569c-1.126,3.589-3.004,5.741-5.012,5.741l0,0
				c-3.721,0-6.561-7.182-5.979-15.115l9.189-125.195H263.957z"/>
			<path fill="#768FDB" d="M505.825,1698.438h378.898c26.111,0,47.278-21.166,47.278-47.277v-240.336
				c0-20.303-16.458-36.764-36.761-36.764H505.825V1698.438z"/>
			<path fill="#4364CC" d="M411.44,1698.438h378.899c26.111,0,47.278-21.166,47.278-47.277v-240.336
				c0-20.303-16.459-36.764-36.762-36.764H411.44V1698.438z"/>
			<path fill="#768FDB" d="M328.987,1456.098h356.523v-167.93c0-20.084-16.282-36.367-36.368-36.367H328.987V1456.098z"/>
			<path fill="#95ADF5" d="M295.16,1450.545h500.186c23.807,0,43.104,19.299,43.104,43.105v49.713H295.16V1450.545z"/>
			<rect x="295.16" y="1532.578" fill="#768FDB" width="543.29" height="166.098"/>
			<path fill="#4364CC" d="M219.684,1456.098h109.304v-204.297h-74.019c-19.487,0-35.285,15.797-35.285,35.285V1456.098z"/>
		</g>
		<g>
			<path fill="#F37A50" d="M933.282,1652.918l20.742,29.012c0,0,18.526,23.613,40.611,12.527
				c22.084-11.086,12.295-46.559,12.295-46.559l-25.373-33.406L933.282,1652.918z"/>
			<g>
				<g>
					<g>
						<path fill="#2C2858" d="M1006.065,1644.058c0,0,22.302-0.21,46.527-8.465c13.553-4.617,48.982-18.053,56.938,6.188
							c1.187,3.619,0.633,8.684-6.017,16.389c-9.821,11.381-24.813,23.906-59.97,34.797c-42.177,13.066-45.578,20.535-61.688,24.518
							c-16.698,4.129-22.223-19.162-28.68-38.086l0,0c2.945,3.993,11.724,13.828,43.095,8.093
							C1005.636,1685.777,978.906,1656.343,1006.065,1644.058z"/>
					</g>
				</g>
			</g>
			<path fill="#F37A50" d="M757.613,1752.662v19.679c0,0,1.338,29.981,25.751,33.808c24.413,3.827,37.079-30.723,37.079-30.723
				l-0.896-30.992L757.613,1752.662z"/>
			<g>
				<path fill="#201D40" d="M685.977,1284.509c-11.599-2.699-44.934,34.591-43.701,38.569
					c30.729,41.859,130.52,65.354,130.52,65.354l16.252-10.605C789.049,1377.826,730.356,1333.208,685.977,1284.509z"/>
				<path fill="#201D40" d="M599.052,1166.75c3.506,34.576,32.496,149.781,43.225,156.328l43.701-38.569
					c0,0-29.74-121.015-34.707-139.796C642.745,1112.175,593.22,1110.31,599.052,1166.75z"/>
			</g>
			<path fill="#2C2858" d="M710.883,975.76c3.183-43.322-9.343-81.598-43.887-101.088c-35.013-19.757-78.874-0.381-78.874-0.381l0,0
				c-0.004-0.001-37.127-13.207-70.772,23.855c-33.647,37.063-8.195,69.678-21.96,96.708c-8.151,16.006-49.6,19.307-38.892,71.447
				c3.088,15.037,21.173,25.157,36.491,26.164c26.913,1.768,51.975-8.637,62.885,1.768c35.949,34.283,115.617,21.885,126.767-9.476
				c3.457-9.724,75.121,9.093,67.971-57.138C746.987,994.059,708.04,1014.471,710.883,975.76z"/>
			<path fill="#F37A50" d="M625.658,1061.81c0,0-4.651,42.6-6.136,58.312l-57.354,1.688c17.523-27.13,9.621-104.472,9.621-104.472
				L625.658,1061.81z"/>
			<g>
				
					<ellipse transform="matrix(-0.9725 0.2329 -0.2329 -0.9725 1439.2257 1810.844)" fill="#F37A50" cx="612.727" cy="990.373" rx="72.837" ry="92.739"/>
				<circle cx="671.49" cy="983.378" r="6.996"/>
				<circle cx="617.06" cy="996.676" r="7.573"/>
				<g>
					<path fill="#2C2858" d="M601.907,993.781c0.517-0.257,0.952-0.685,1.213-1.25c3.796-8.188,14.051-9.784,14.153-9.799
						c1.436-0.21,2.435-1.544,2.228-2.981c-0.207-1.438-1.534-2.435-2.971-2.233c-0.537,0.076-13.174,1.977-18.188,12.798
						c-0.611,1.32-0.037,2.886,1.282,3.497C600.38,994.164,601.216,994.126,601.907,993.781z"/>
				</g>
				<g>
					<path fill="#2C2858" d="M680.486,976.357c0.253-0.125,0.489-0.295,0.699-0.507c1.021-1.034,1.012-2.702-0.022-3.725
						c-8.034-7.937-17.936-4.645-18.353-4.501c-1.372,0.473-2.105,1.974-1.631,3.348c0.473,1.371,1.965,2.101,3.336,1.636
						c0.325-0.108,7.295-2.318,12.945,3.265C678.283,976.685,679.506,976.846,680.486,976.357z"/>
				</g>
				<path fill="#DE623C" d="M660.729,1001.711c3.838,3.948,7.205,8.019,10.87,10.326c1.235,0.779,1.631,2.423,0.913,3.695
					c-2.961,5.248-11.604,9.57-16.903,11.822c-0.773,0.33-1.409-0.684-0.776-1.238c5.35-4.69,7.648-8.146,8.612-10.042
					c0.479-0.944,0.466-2.051-0.011-2.995c-1.097-2.168-3.28-6.587-4.758-10.244
					C658.166,1001.771,659.779,1000.733,660.729,1001.711z"/>
				
					<ellipse transform="matrix(0.614 -0.7893 0.7893 0.614 -594.2469 828.2567)" fill="#F37A50" cx="549.758" cy="1021.738" rx="17.847" ry="21.808"/>
				<g>
					<path fill="#DE623C" d="M555.305,1032.869c0.354-0.175,0.675-0.436,0.929-0.773c3.65-4.855,3.993-10.313,0.918-14.596
						c-3.148-4.387-8.996-6.392-13.902-4.771c-1.382,0.456-2.131,1.945-1.674,3.325c0.456,1.381,1.945,2.131,3.326,1.675
						c2.688-0.889,6.189,0.361,7.972,2.841c1.712,2.386,1.41,5.354-0.85,8.359c-0.874,1.164-0.64,2.814,0.523,3.689
						C553.37,1033.238,554.44,1033.301,555.305,1032.869z"/>
				</g>
				<g>
					<path fill="#DE623C" d="M642.021,1055.137c-19.04,0-26.991-11.823-27.401-12.455c-0.874-1.348-0.491-3.148,0.855-4.021
						c1.343-0.871,3.136-0.494,4.014,0.842c0.447,0.671,10.831,15.625,37.972,7.279c1.535-0.472,3.162,0.389,3.634,1.925
						c0.472,1.535-0.39,3.161-1.925,3.632C652.664,1054.341,646.968,1055.137,642.021,1055.137z"/>
				</g>
			</g>
			<path fill="#2C2858" d="M540.926,1002.93c46.694-6.254,112.03-53.827,117.39-78.242c-9.032-29.328-57.155-44.068-84.328-30.481
				C546.815,907.792,521.146,966.023,540.926,1002.93z"/>
			<path fill="#3F964F" d="M581.205,1469.461l236.921-10.123c0,0,11.688-59.133,2.896-82.576s-226.471-18.609-226.471-18.609
				L581.205,1469.461z"/>
			<path fill="#0E6A41" d="M511.524,1317.631c-6.419,14.836-31.44,58.995-29.024,94.791c2.493,36.945,28.561,69.111,72.68,68.41
				c0,0,83.153-47.268,65.154-144.091C620.334,1336.741,576.803,1319.738,511.524,1317.631z"/>
			<path fill="#0E6A41" d="M548.606,1489.266l208.695,19.688c0,0,71.589-30.209,71.181-55.865
				c-0.407-25.658-210.685-95.861-210.685-95.861C494.468,1321.261,453.355,1474.33,548.606,1489.266z"/>
			<path fill="#0E6A41" d="M828.481,1453.088l-4.184,294.371c0,0-52.098,21.955-70.354,0.17
				c-8.616-99.912-49.642-188.42-3.841-249.326C811.447,1416.727,828.481,1453.088,828.481,1453.088z"/>
			<path fill="#3F964F" d="M820.519,1376.073l173.668,238.499c0,0-38.761,51.805-65.827,45.74
				c-46.695-59.087-141.186-128.372-141.79-202.732C785.764,1357.988,820.519,1376.073,820.519,1376.073z"/>
			<path fill="#F37A50" d="M645.014,1430.666c-14.255-3.313-33.625-4.789-31.528-12.09c2.097-7.3,10.062-8.375,12.939-17.066
				c2.552-7.705-24.386-11.601-46.951,10.684l-2.232-2.615l-16.318,22.869l2.89,2.182c11.073,21.592,54.641,41.111,84.654,32.9
				C678.857,1459.213,659.268,1433.979,645.014,1430.666z"/>
			<path fill="#2C2858" d="M569.627,1101.801l50.796,9.229c19.371,36.293,40.751,72.516,40.801,94.357
				c0.066,28.758-39.392,147.863-39.392,147.863c-51.921,6.843-94.209,0.276-126.271-20.527
				c25.038-70.813-17.714-158.244,28.669-206.021C535.805,1114.779,554.325,1109.492,569.627,1101.801z"/>
			<path fill="#F37A50" d="M799.143,1379.096c-0.557-0.723-1.036-1.047-1.192-1.848c0,0-0.4,0.078-0.322,0.479
				c-5.555,5.66-13.65,6.822-17.395,2.559c-0.557-0.725-1.114-1.447-1.671-2.172c-4.577,2.141-9.622,1.875-12.251-0.941
				c-1.036-1.045-1.75-2.572-2.063-4.174c-4.497,2.542-9.543,2.276-13.131-1.188c-4.143-4.185-3.468-11.391,1.441-16.092
				c4.909-4.701,11.88-5.228,15.947-1.442c1.036,1.046,1.671,2.169,1.983,3.772c5.389-4.379,12.359-4.904,15.947-1.442
				c0.557,0.724,1.114,1.446,1.671,2.171c4.576-2.141,9.621-1.875,12.251,0.94c1.036,1.046,1.75,2.572,1.984,3.774
				c3.696-2.384,8.741-2.119,11.37,0.697c3.588,3.461,2.677,9.465-1.107,13.531C808.823,1381.787,802.653,1382.157,799.143,1379.096
				z"/>
			<path fill="#201D40" d="M508.914,1145.195c-24.477,38.135-106.285,120.934-98.795,174.391
				c5.246,37.428,147.551,119.057,147.551,119.057l20.926-31.076l-91.933-106.491c0,0,80.454-113.265,90.323-135.462
				C594.245,1126.799,547.404,1085.229,508.914,1145.195z"/>
			<g>
				<g>
					<g>
						<path fill="#2C2858" d="M821.974,1771.797c0,0,18.264,12.801,42.772,20.177c13.712,4.124,50.347,13.802,42.719,38.147
							c-1.139,3.633-4.535,7.432-14.426,9.834c-14.607,3.545-34.088,5.015-69.022-6.572c-41.909-13.902-49.021-9.805-64.441-15.934
							c-15.984-6.354-6.933-28.514-1.179-47.662l0,0c0.073,4.961,1.493,18.066,30.349,31.645
							C797.36,1805.486,792.735,1765.996,821.974,1771.797z"/>
					</g>
				</g>
			</g>
		</g>
		<path fill="#768FDB" d="M314.068,1698.438h226.181c26.111,0,47.278-21.166,47.278-47.277v-240.336
			c0-20.303-16.459-36.764-36.762-36.764H314.068V1698.438z"/>
		<path fill="#4364CC" d="M219.684,1698.438h226.181c26.11,0,47.277-21.166,47.277-47.277v-240.336
			c0-20.303-16.458-36.764-36.761-36.764H219.684V1698.438z"/>
	</g>
	<g>
		<path fill="#95ADF5" d="M4078.767,640.933h-285.756c-35.372,0-64.046,28.674-64.046,64.045v133.209
			c0,35.372,28.674,64.046,64.046,64.046h2.12l-22.936,76.834c-1.009,3.38,2.896,6.078,5.7,3.938l105.877-80.772h194.994
			c35.371,0,64.046-28.674,64.046-64.046V704.978C4142.813,669.607,4114.138,640.933,4078.767,640.933z"/>
		<path fill="#FFFFFF" d="M4076.355,753.519h-287.718c-14.271,0-25.838-11.568-25.838-25.837v-6.461
			c0-14.27,11.567-25.838,25.838-25.838h287.718c14.27,0,25.838,11.568,25.838,25.838v6.461
			C4102.193,741.952,4090.625,753.519,4076.355,753.519z"/>
		<path fill="#FFFFFF" d="M3935.91,841.419h-134.729c-16.054,0-29.068-13.015-29.068-29.069l0,0
			c0-16.054,13.015-29.068,29.068-29.068h134.729c16.054,0,29.068,13.014,29.068,29.068l0,0
			C3964.979,828.404,3951.964,841.419,3935.91,841.419z"/>
	</g>
	<g>
		<path fill="#95ADF5" d="M3483.692,494.24h-285.756c-35.37,0-64.045,28.674-64.045,64.045v133.21
			c0,35.371,28.675,64.045,64.045,64.045h2.121l-22.936,76.835c-1.009,3.379,2.895,6.076,5.699,3.938l105.878-80.772h194.993
			c35.371,0,64.046-28.675,64.046-64.045v-133.21C3547.738,522.914,3519.063,494.24,3483.692,494.24z"/>
		<path fill="#FFFFFF" d="M3391.87,606.827h-195.075c-16.055,0-29.069-13.014-29.069-29.068l0,0
			c0-16.054,13.015-29.068,29.069-29.068h195.075c16.055,0,29.068,13.014,29.068,29.068l0,0
			C3420.938,593.813,3407.925,606.827,3391.87,606.827z"/>
		<path fill="#FFFFFF" d="M3489.53,694.727h-283.423c-16.055,0-29.069-13.014-29.069-29.068l0,0
			c0-16.055,13.015-29.069,29.069-29.069h283.423c16.054,0,29.069,13.014,29.069,29.069l0,0
			C3518.6,681.712,3505.584,694.727,3489.53,694.727z"/>
	</g>
	<g>
		<path fill="#95ADF5" d="M650.989,425.766h374.922c46.409,0,84.031,37.621,84.031,84.03v174.776
			c0,46.408-37.622,84.03-84.031,84.03h-2.782l30.093,100.809c1.323,4.434-3.799,7.974-7.479,5.167L906.828,768.602H650.989
			c-46.408,0-84.029-37.621-84.029-84.03V509.796C566.96,463.387,604.581,425.766,650.989,425.766z"/>
		<path fill="#FFFFFF" d="M654.152,573.484h377.497c18.723,0,33.9-15.177,33.9-33.9v-8.478c0-18.722-15.178-33.9-33.9-33.9H654.152
			c-18.722,0-33.9,15.178-33.9,33.9v8.478C620.252,558.308,635.431,573.484,654.152,573.484z"/>
		<path fill="#FFFFFF" d="M838.423,688.81h176.769c21.064,0,38.14-17.075,38.14-38.139l0,0c0-21.063-17.075-38.139-38.14-38.139
			H838.423c-21.064,0-38.14,17.075-38.14,38.139l0,0C800.283,671.735,817.358,688.81,838.423,688.81z"/>
	</g>
	<g>
		<path fill="#FFFFFF" d="M1306.243,736.266c9.197-6.949,20.235-10.424,33.113-10.424c27.799,0,42.516,15.126,42.516,36.384
			c0,12.264-5.928,24.732-17.987,37.201c-15.331,16.148-26.368,24.12-33.318,24.12c-6.746,0-11.651-5.315-11.651-11.651
			c0-5.723,5.314-11.446,14.513-19.827c0.613-0.613,1.227-1.226,1.635-1.432c10.425-9.606,13.695-14.921,13.695-21.462
			c0-8.176-5.519-12.674-13.491-12.674c-3.679,0-7.972,0.818-13.082,2.454c-5.11,1.636-8.789,2.453-11.038,2.453
			c-5.724,0-12.264-4.907-12.264-13.082C1298.884,744.033,1301.336,739.945,1306.243,736.266z M1334.246,872.604
			c-12.469,0-20.849-9.402-20.849-20.849c0-9.812,8.38-19.214,20.849-19.214c10.833,0,19.214,9.402,19.214,19.214
			C1353.46,862.997,1345.488,872.604,1334.246,872.604z"/>
	</g>
	<g>
		<path fill="#FFFFFF" d="M3636.447,574.967c-37.152,0-67.379-30.227-67.379-67.38s30.227-67.379,67.379-67.379
			c37.153,0,67.379,30.226,67.379,67.379S3673.601,574.967,3636.447,574.967z M3636.447,458.766c-26.92,0-48.82,21.9-48.82,48.821
			c0,26.92,21.9,48.821,48.82,48.821s48.821-21.901,48.821-48.821C3685.269,480.667,3663.367,458.766,3636.447,458.766z"/>
	</g>
	<g>
		<path fill="#FFFFFF" d="M2275.137,496.252c-24.436,0-44.314-19.879-44.314-44.314c0-24.434,19.879-44.313,44.314-44.313
			c24.434,0,44.313,19.879,44.313,44.313C2319.449,476.373,2299.57,496.252,2275.137,496.252z M2275.137,419.83
			c-17.705,0-32.109,14.403-32.109,32.108c0,17.705,14.404,32.108,32.109,32.108c17.704,0,32.107-14.403,32.107-32.108
			C2307.244,434.233,2292.841,419.83,2275.137,419.83z"/>
	</g>
	<g>
		<path fill="#FFFFFF" d="M1856.51,282.553c-19.115,0-34.667-15.552-34.667-34.668c0-19.115,15.552-34.668,34.667-34.668
			c19.116,0,34.668,15.553,34.668,34.668C1891.178,267,1875.626,282.553,1856.51,282.553z M1856.51,222.766
			c-13.85,0-25.118,11.269-25.118,25.119c0,13.851,11.268,25.119,25.118,25.119c13.851,0,25.12-11.268,25.12-25.119
			C1881.63,234.034,1870.361,222.766,1856.51,222.766z"/>
	</g>
	<circle fill="#E3EAFF" cx="2733.617" cy="172.667" r="47.404"/>
	<circle fill="#FFFFFF" cx="3703.827" cy="356.873" r="47.404"/>
	<circle fill="#FFFFFF" cx="1766.446" cy="321.029" r="47.404"/>
	<circle fill="#FFFFFF" cx="1984.954" cy="585.589" r="40.153"/>
	<circle fill="#E3EAFF" cx="568.939" cy="735.39" r="38.468"/>
	<g>
		<g>
			<path d="M1782.984,670.102c-55.863-15.763-175.172,34.731-142.702,237.914c32.47,203.182,186.294,169.667,186.294,169.667
				s67.044-21.073,73.062-150.156C1905.657,798.443,1876.93,696.61,1782.984,670.102z"/>
			<path fill="#4364CC" d="M1754.914,941.719c0,0-73.568,57.021-183.281,53.495c-22.124-42.42,22.97-63.527,22.97-63.527
				l87.764-39.768c0,0,31.581-10.376,57.637,10.134C1762.7,919.92,1754.914,941.719,1754.914,941.719z"/>
			<path fill="#F37A50" d="M1677.471,829.177c0,0-28.139,66.388-44.388,105.919c-6.449,15.69-30.879,61.033-61.45,60.118
				c-27.139-29.239,9.499-111.373,91.927-179.226C1673.305,826.3,1677.471,829.177,1677.471,829.177z"/>
			<g>
				<path fill="#8A284C" d="M1673.508,857.805l-27.134-13.326c-3.68-1.808-5.198-6.258-3.391-9.939l28.512-58.049
					c1.808-3.681,8.84-6.081,12.521-4.273l24.55,14.208c3.681,1.808,5.199,6.258,3.392,9.939l-24.316,59.003
					C1686.5,858.156,1680.176,861.191,1673.508,857.805z"/>
				<path fill="#E62552" d="M1679.048,857.431l-27.133-13.327c-3.681-1.807-5.199-6.257-3.391-9.938l28.511-58.05
					c1.808-3.682,6.257-5.199,9.938-3.391l27.132,13.325c3.681,1.809,5.2,6.259,3.392,9.939l-28.512,58.05
					C1687.179,857.72,1682.729,859.239,1679.048,857.431z"/>
				<path fill="#3B1120" d="M1682.408,845.715l-23.012-11.304c-3.029-1.487-4.278-5.148-2.791-8.178l22.869-46.561
					c1.488-3.03,5.149-4.278,8.179-2.791l23.012,11.302c3.029,1.489,4.279,5.15,2.791,8.179l-22.869,46.56
					C1689.099,845.952,1685.438,847.202,1682.408,845.715z"/>
				<circle fill="#8A284C" cx="1668.178" cy="845.278" r="3.704"/>
				<path id="c_43_" fill="#F37A50" d="M1648.41,817.757c0.532-0.315,1.103-0.501,1.686-0.635c-0.055-0.088-0.115-0.171-0.169-0.263
					c-3.166-5.341-2.625-11.51,1.207-13.778c0.628-0.373,1.311-0.604,2.02-0.729c-0.771-3.875,0.277-7.484,3.013-9.105
					c1.087-0.643,2.322-0.892,3.605-0.814c-1.021-3.821,0.139-7.72,3.203-9.534c3.833-2.27,9.13-0.413,11.832,4.147
					c2.703,4.558,1.786,10.094-2.046,12.362c-0.97,0.575-2.035,0.883-3.126,0.951c2.225,4.936,1.461,10.176-2.003,12.229
					c-0.629,0.372-1.312,0.604-2.02,0.729c0.771,3.876-0.277,7.485-3.014,9.105c-1.009,0.598-2.146,0.857-3.332,0.83
					c1.061,3.35,0.104,6.854-2.59,8.448c-3.238,1.916-7.711,0.351-9.993-3.502C1644.4,824.349,1645.173,819.673,1648.41,817.757z"/>
			</g>
			<g>
				<g>
					<g>
						<path fill="#F37A50" d="M1734.466,854.646l41.64-6.237l-3.317,38.65c0,0-21.087,38-41.096,31.456
							c-20.007-6.545-10.25-23.333-10.25-23.333L1734.466,854.646z"/>
					</g>
				</g>
			</g>
			<g>
				
					<ellipse transform="matrix(0.9892 0.1466 -0.1466 0.9892 133.5254 -247.2729)" fill="#F37A50" cx="1744.477" cy="782.316" rx="65.647" ry="83.585"/>
				<g>
					<path d="M1770.437,779.62c-0.499-0.147-0.953-0.459-1.273-0.918c-4.649-6.674-14.001-6.486-14.095-6.484
						c-1.307,0.037-2.403-0.991-2.444-2.298c-0.04-1.307,0.981-2.401,2.288-2.446c0.487-0.016,12.002-0.306,18.145,8.516
						c0.749,1.075,0.485,2.556-0.591,3.304C1771.852,779.721,1771.104,779.818,1770.437,779.62z"/>
				</g>
				<g>
					<path d="M1690.449,778.294c-0.237-0.092-0.463-0.225-0.668-0.398c-1-0.849-1.123-2.346-0.274-3.346
						c6.584-7.762,15.734-5.59,16.12-5.494c1.269,0.316,2.046,1.604,1.729,2.877c-0.316,1.268-1.597,2.041-2.866,1.732
						c-0.301-0.071-6.733-1.503-11.364,3.955C1692.453,778.414,1691.367,778.655,1690.449,778.294z"/>
				</g>
				<path fill="#DE623C" d="M1723.563,797.624c-2.984,3.668-5.558,7.401-8.518,9.652c-0.998,0.76-1.212,2.194-0.503,3.228
					c2.928,4.267,10.646,7.312,15.349,8.838c0.687,0.224,1.154-0.691,0.571-1.117c-4.929-3.609-7.155-6.39-8.124-7.941
					c-0.481-0.771-0.554-1.72-0.217-2.562c0.774-1.938,2.31-5.882,3.297-9.122C1725.76,797.483,1724.302,796.717,1723.563,797.624z"
					/>
				<path fill="#FFFFFF" d="M1753.617,832.114c0.911-1.398-0.272-3.202-1.914-2.905c-4.174,0.753-11.083,1.854-17.716,2.251
					c-6.633,0.398-13.625,0.13-17.857-0.12c-1.665-0.099-2.625,1.835-1.553,3.113c3.296,3.932,9.973,9.796,20.14,9.188
					C1744.885,843.032,1750.814,836.41,1753.617,832.114z"/>
				<path d="M1824.013,787.757c-42.419-1.919-98.206-41.07-104.95-62.565c5.789-27.046,27.114-42.33,52.585-32.281
					C1797.119,702.959,1838.851,753.058,1824.013,787.757z"/>
				<path d="M1728.753,736.062c0,0-25.243,25.656-50.806,31.518c8.947-29.925,15.338-52.612,30.676-59.962
					c15.337-7.348,32.272-8.626,32.272-8.626L1728.753,736.062z"/>
				<g>
					
						<ellipse transform="matrix(-0.681 -0.7323 0.7323 -0.681 2460.0256 2664.8914)" fill="#F37A50" cx="1810.454" cy="796.626" rx="16.084" ry="19.656"/>
					<g>
						<path fill="#DE623C" d="M1806.354,807.06c-0.333-0.13-0.64-0.337-0.895-0.622c-3.662-4.071-4.401-8.941-1.979-13.032
							c2.48-4.187,7.571-6.45,12.104-5.383c1.276,0.301,2.067,1.578,1.766,2.854c-0.3,1.277-1.579,2.067-2.854,1.767
							c-2.483-0.584-5.528,0.813-6.932,3.182c-1.349,2.276-0.843,4.918,1.424,7.438c0.876,0.975,0.797,2.475-0.178,3.351
							C1808.12,807.237,1807.164,807.378,1806.354,807.06z"/>
					</g>
				</g>
				<circle cx="1758.588" cy="786.604" r="7.289"/>
				<circle cx="1705.474" cy="786.604" r="7.289"/>
			</g>
			<g>
				<path fill="#F37A50" d="M1695.483,1729.8c2.788-27.808-11.56-239.444-11.56-239.444
					c-40.577-186.057-24.638-319.244-24.638-319.244l69.742,4.901l27.487,105.138l-13.038,175.586c0,0,4.894,13.516,7.477,24.325
					c14.003,58.611,0.056,128.656-8.567,175.344c-3.996,21.636-10.212,67.105-10.374,77.439l17.521,22.651
					c0,0-63.412,70.179-73.167,70.619c-18.961,0.855-13.374-17.922-13.374-17.922
					C1689.056,1782.429,1694.685,1737.765,1695.483,1729.8z"/>
				<path fill="#E62552" d="M1750.618,1781.362l-3.489,45.089l-8.104,0.366l-4.101-41.872c-21.571,5.505-37.026,44.65-37.026,44.65
					c-14.858,5.33-52.626,8.985-66.069,2.061c-3.246-13.174,31.22-22.41,31.22-22.41c3.114,3.688,21.512,6.513,28.045,2.563
					c24.058-20.483,35.789-50.267,40.917-77.964C1732.012,1733.845,1770.026,1736.494,1750.618,1781.362z"/>
			</g>
			<g>
				<path fill="#F37A50" d="M1719.067,1184.645l98.249-13.533c37.584,85.035,49.836,233.086,60.039,285.828
					c40.954,68.668,53.958,276.905,53.958,276.905l17.521,22.651c0,0-63.412,70.179-73.166,70.619
					c-18.961,0.855-13.374-17.922-13.374-17.922c26.063-26.765,31.143-62.323,32.831-70.147
					c2.537-11.759-79.524-242.771-79.524-242.771l-8.76-21.92c-100.229-165.546-116.676-290.695-116.676-290.695L1719.067,1184.645z
					"/>
				<path fill="#E62552" d="M1949.92,1781.362l-3.489,45.089l-8.104,0.366l-4.1-41.872c-21.572,5.505-37.026,44.65-37.026,44.65
					c-14.858,5.33-52.627,8.985-66.069,2.061c-3.245-13.174,31.22-22.41,31.22-22.41c3.114,3.688,21.512,6.513,28.045,2.563
					c24.057-20.483,35.789-50.267,40.917-77.964C1931.314,1733.845,1969.329,1736.494,1949.92,1781.362z"/>
			</g>
			<g>
				<g>
					<g>
						<g>
							<path fill="#070635" d="M1901.729,1447.278c-9.812-32.828-5.542-267.806-92.162-331.702l-149.058,15.707
								c-34.446,55.756-21.81,200.833-10.21,320.23C1720.382,1476.528,1776.105,1486.567,1901.729,1447.278z"/>
						</g>
					</g>
				</g>
			</g>
			<g>
				<g>
					<g>
						<path fill="#768FDB" d="M1658.691,1094.502c0-32.643-28.291-81.547-14.729-114.5c9.877-26.507,29.283-86.31,50.429-90.347
							c8.582-1.639,17.999,0.011,29.88-3.275c0,0-6.204,27.684,7.761,28.803c26.882,2.157,41.009-32.307,41.009-32.307
							c14.494-1.385,65.042,13.699,65.01,19.159c-0.158,42.759-18.962,111.905-30.323,158.136
							c-2.107,23.539-0.44,41.798,1.917,55.119c4.303,13.884,9.56,21.836,9.593,24.838c0,0-99.641,33.852-163.038-1.051
							C1656.2,1139.078,1658.691,1116.547,1658.691,1094.502z"/>
					</g>
				</g>
			</g>
			<g id="c_42_">
				<path fill="#F37A50" d="M1835.966,1125.525l-8.492,3.395c0,0-8.852-14.076-17.829-13.629l4.474,13.447
					c0,0-5.077,15.718-32.271,13.919c-23.229,5.279-6.979,16.309-13.41,20.719c-9.489,6.51,17.124,22.495,39.544,15.6
					c29.012-8.921,47.862-36.318,47.862-36.318L1835.966,1125.525z"/>
			</g>
			<path fill="#F37A50" d="M1835.966,899.476c0,0,70.996,41.587,105.37,141.27c-30.875,34.228-56.888,8.687-56.888,8.687
				l-68.78-67.964c0,0-20.221-24.835-10.551-55.173C1813.539,899.87,1835.966,899.476,1835.966,899.476z"/>
			<path fill="#F37A50" d="M1835.966,1125.525l49.633-72.689c0,0,11.724-27.884,55.737-12.09
				c2.131,23.663-15.005,57.363-93.507,109.288C1842.759,1136.783,1835.966,1125.525,1835.966,1125.525z"/>
			<path fill="#FFFFFF" d="M1732.031,915.184c-2.396,11.184,4.101,24.591,22.837,18.305c22.438-7.531,32.92-49.648,32.92-49.648
				l-14.07-7.623C1773.718,876.218,1763.036,905.31,1732.031,915.184z"/>
			<path fill="#FFFFFF" d="M1732.031,915.184c-2.77,5.762-18.552,20.532-26.031,11.733c-7.479-8.798,1.251-31.891,1.251-31.891
				l17.019-8.646C1724.271,886.381,1717.598,907.18,1732.031,915.184z"/>
			<path fill="#4364CC" d="M1835.966,899.476c0,0,70.996,41.587,105.37,141.27c-30.875,34.228-59.567,6.038-59.567,6.038
				l-66.101-65.315c0,0-20.221-24.835-10.551-55.173C1813.539,899.87,1835.966,899.476,1835.966,899.476z"/>
		</g>
	</g>
	<g id="c_32_">
		<g>
			<polygon id="v-2_10_" fill="#F37A50" points="2147.941,797.359 2147.979,797.359 2179.385,797.473 2186.497,871.654 
				2149.834,891.011 2110.74,871.872 2117.058,797.473 			"/>
			<g>
				
					<ellipse transform="matrix(-0.9894 0.1455 -0.1455 -0.9894 4394.6743 1152.1235)" fill="#F37A50" cx="2155.198" cy="736.799" rx="73.986" ry="94.202"/>
				<circle cx="2215.283" cy="735.025" r="7.107"/>
				<circle cx="2159.013" cy="743.567" r="7.692"/>
				<path fill="#DE623C" d="M2195.533,746.136c7.586,9.601,17.145,21.281,17.145,21.281s-2.574,11.292-16.904,13.03
					c5.797-3.182,11.35-7.932,7.98-15.753C2200.383,756.871,2195.533,746.136,2195.533,746.136z"/>
				<g>
					<path fill="#201D40" d="M2139.304,738.614c-0.265-0.064-0.526-0.158-0.78-0.287c-1.746-0.885-2.445-3.019-1.561-4.766
						c2.416-4.77,9.768-13.139,20.296-10.675c1.915,0.478,3.091,2.353,2.645,4.261c-0.446,1.907-2.353,3.091-4.26,2.644
						c-7.796-1.825-12.31,6.886-12.354,6.974C2142.533,738.26,2140.864,738.987,2139.304,738.614z"/>
				</g>
				<g>
					<path fill="#201D40" d="M2204.922,721.267c-0.494-0.118-0.963-0.365-1.355-0.741c-1.178-1.131-1.217-3.001-0.087-4.179
						c0.178-0.185,4.408-4.519,10.369-4.211c4.069,0.211,7.795,2.45,11.069,6.658c1.002,1.287,0.771,3.144-0.516,4.147
						c-1.289,1.002-3.146,0.77-4.148-0.517c-2.172-2.792-4.432-4.268-6.712-4.386c-3.239-0.167-5.773,2.375-5.798,2.401
						C2206.991,721.224,2205.908,721.502,2204.922,721.267z"/>
				</g>
				<path fill="#201D40" d="M2064.712,706.341c-5.08-49.072,39.875-65.839,39.875-65.839s-10.169-3.415-7.923-18.305
					c7.199,4.287,15.961,6.195,24.286,5.252c56.098-6.351,91.587,2.393,86.306,24.488c-1.879,7.863,34.465,10.737,18.963,62.948
					c-1.396-3.662-6.852-28.456-17.846-33.377c-11.033-4.938-4.277,12.949-29.128,10.502c-25.075-2.469-41.517-12.629-59.618-2.484
					c-14.458,9.166-35.968,76.79-32.536,79.167C2076.436,761.314,2066.946,727.907,2064.712,706.341z"/>
				<path fill="#201D40" d="M2229.187,754.181c0,0-4.394,28.09-10.406,35.663c-1.495-12.044-13.175-2.449-21.78-3.339
					c-20.795-2.152-55.555-17.566-66.387,11.808c-26.496,1.908-41.926-53.659-41.926-53.659
					c-15.496,58.566,24.575,99.647,88.953,104.674C2220.053,852.64,2237.446,796.639,2229.187,754.181z"/>
				<g>
					<path fill="#DE623C" d="M2173.196,800.506c-3.759-1.904-7.522-4.525-11.277-7.854c-0.977-0.866-1.066-2.359-0.2-3.337
						c0.865-0.975,2.359-1.065,3.338-0.2c8.322,7.382,16.531,10.879,24.395,10.393c9.723-0.599,15.684-7.243,15.743-7.31
						c0.86-0.977,2.353-1.075,3.333-0.218s1.084,2.344,0.229,3.327c-0.289,0.333-7.221,8.156-18.924,8.916
						C2184.34,804.578,2178.775,803.331,2173.196,800.506z"/>
				</g>
				<g>
					
						<ellipse transform="matrix(0.679 -0.7341 0.7341 0.679 118.1703 1772.782)" fill="#F37A50" cx="2086.299" cy="751.261" rx="18.128" ry="22.152"/>
					<g>
						<path fill="#DE623C" d="M2090.95,763.008c0.375-0.148,0.72-0.383,1.007-0.704c4.114-4.599,4.933-10.092,2.19-14.692
							c-2.808-4.712-8.552-7.247-13.658-6.032c-1.437,0.345-2.324,1.786-1.981,3.223c0.342,1.438,1.785,2.324,3.222,1.982
							c2.798-0.666,6.233,0.9,7.822,3.566c1.526,2.561,0.964,5.54-1.583,8.387c-0.984,1.101-0.891,2.792,0.211,3.777
							C2088.961,763.212,2090.039,763.368,2090.95,763.008z"/>
					</g>
				</g>
			</g>
		</g>
		<path d="M2205.252,1767.827c27.771,38.315,95.967,14.806,93.709,66.628c-103.707-0.666-146.806,0-146.806,0
			c0.137-11.904,2.187-40.155,4.578-51.214L2205.252,1767.827z"/>
		<path d="M2050.09,1768.832c27.77,38.313,95.966,14.803,93.708,66.626c-103.706-0.664-146.806,0-146.806,0
			c0.137-11.901,2.187-40.153,4.578-51.213L2050.09,1768.832z"/>
		<path fill="#4364CC" d="M2253.26,1182.885c0,0,16.838,245.572,9.998,300.168c-6.841,54.597-31.063,124.59-28.316,305.175
			c-33.807,8.464-82.786,0-82.786,0s-7.262-204.192,28.476-295.396c-14.531-88.593-61.164-291.502-61.164-291.502L2253.26,1182.885z
			"/>
		<path fill="#768FDB" d="M2189.27,1189.599c0,0-33.998,275.693-50.641,327.986c-16.644,52.292-31.126,90.6-61.257,268.497
			c-34.742,1.738-84.919,0.661-84.919,0.661s4.541-220.409,58.649-271.726c1.832-89.838-8.749-323.649-8.749-323.649
			L2189.27,1189.599z"/>
		<g id="v_11_">
			<path id="h-5_6_" fill="#E62552" d="M2032.54,876.705c0,0,59.048-20.675,78.74-11.192c61.184,29.461,75.218,0,75.218,0
				c19.552,1.687,78.571,11.192,78.571,11.192c0,65.911,4.4,132.051,3.2,181.927c-0.845,43.438,7.435,161.642,7.435,161.642
				s-65.102,17.067-126.689,17.511c-61.587-0.398-124.27-16.819-124.27-16.819s3.29-119.721,6.024-164.218
				C2029.88,1006.868,2032.54,942.439,2032.54,876.705z"/>
		</g>
		<g id="c_40_">
			<path id="c_41_" fill="#C4204A" d="M2370.033,974.664c-24.373-58.151-96.697-95.139-104.965-97.959l-16.775,74.655
				c34.745,20.546,59.966,42.776,59.966,42.776c-4.276,20.786-3.56,41.174-15.595,67.463c0,0,10.451-14.422,23.344-5.887
				c12.534,8.296,35.584-8.638,35.584-8.638S2388.651,1019.084,2370.033,974.664z"/>
		</g>
		<g id="c_33_">
			<g id="c_36_">
				<g id="c_37_">
					<path id="c_39_" fill="#768FDB" d="M2356.451,1121.623c0.421,0.129,0.846,0.213,1.267,0.257h1.387
						c2.542-0.271,4.804-2.007,5.61-4.601l64.977-209.489c0.131-0.421,0.212-0.846,0.258-1.267c0.029-0.28,0.014-0.552,0.008-0.827
						c-0.003-0.165,0.018-0.335,0-0.499c-0.014-0.148-0.058-0.286-0.082-0.431c-0.394-2.38-2.06-4.463-4.521-5.231
						c-0.396-0.123-0.808-0.217-1.235-0.265c-0.479-0.052-0.949-0.046-1.41,0h-163.572l-65.546,222.61h162.973L2356.451,1121.623z"
						/>
					<path id="c_38_" fill="#4364CC" d="M2260.626,899.531c-3.483-1.08-7.182,0.864-8.263,4.345l-64.568,208.967l-0.146,0.488
						c-1.071,3.469,0.862,7.142,4.317,8.234l0.007,0.016c3.481,1.08,7.181-0.865,8.263-4.345l64.734-209.447
						C2266.053,904.311,2264.107,900.612,2260.626,899.531z"/>
				</g>
			</g>
			<path id="c_35_" fill="#F37A50" d="M2384.203,1032.438c0.611-0.405,1.276-0.661,1.959-0.854c-0.07-0.102-0.146-0.197-0.215-0.301
				c-4.071-6.138-3.799-13.479,0.606-16.396c0.723-0.479,1.515-0.794,2.349-0.982c-1.145-4.546-0.119-8.887,3.025-10.969
				c1.248-0.825,2.697-1.194,4.223-1.178c-1.438-4.467-0.297-9.155,3.225-11.486c4.404-2.917,10.791-1.033,14.265,4.205
				c3.474,5.241,2.719,11.853-1.687,14.77c-1.114,0.738-2.357,1.167-3.646,1.313c2.931,5.712,2.339,11.967-1.644,14.604
				c-0.723,0.479-1.517,0.794-2.349,0.984c1.146,4.546,0.118,8.884-3.026,10.967c-1.16,0.769-2.492,1.143-3.896,1.182
				c1.455,3.906,0.531,8.114-2.564,10.164c-3.722,2.465-9.115,0.874-12.048-3.551
				C2379.846,1040.485,2380.483,1034.9,2384.203,1032.438z"/>
			<path fill="#F37A50" d="M2183.108,1019.197l14.912-8.641c0,0,4.128-21.149,28.071-21.658c-2.741,8.873-6.691,21.658-6.691,21.658
				s11.785,9.15,39.736-6.509c27.326-6.14,15.654,13.782,24.711,15.212c13.361,2.11-9.742,28.371-37.025,32.389
				c-35.304,5.199-39.492-2.027-39.492-2.027l-19.977,6.981L2183.108,1019.197z"/>
			<path id="c_34_" fill="#8A284C" d="M2030.618,1043.796c49.837-3.481,149.368-30.102,149.368-30.102
				c13.605,20.868,9.843,48.585,9.843,48.585c-77.396,67.854-193.878,89.79-229.617,73.459
				c-32.628-14.911-9.451-213.583,72.472-259.081L2030.618,1043.796z"/>
		</g>
		
			<ellipse transform="matrix(0.9287 0.3708 -0.3708 0.9287 506.4226 -780.3945)" fill="#4364CC" cx="2282.862" cy="926.907" rx="11.95" ry="13.791"/>
		
			<ellipse transform="matrix(0.9287 0.3708 -0.3708 0.9287 507.9261 -789.7599)" fill="#4364CC" cx="2308.22" cy="926.294" rx="7.13" ry="8.226"/>
	</g>
	<g>
		<g>
			<g>
				<g>
					<g>
						<path fill="#F37A50" d="M2424.236,884.627c16.982-17.133,5.842-34.701,5.842-34.701c9.318-1.999,58.482,72.476,79.681,119.803
							c36.978-37.269,102.134-87.598,119.753-90.533c0,0,23.768-6.388,32.309,22.349c7.623,25.649-22.107,43.823-22.107,43.823
							s-127.178,89.789-145.986,81.807C2464.457,1014.754,2437.971,907.89,2424.236,884.627z"/>
					</g>
				</g>
			</g>
			<g>
				<g>
					<g>
						<g>
							<path fill="#F37A50" d="M2397.682,882.509c10.379,0.633,24.017-4.498,28.016,4.807l19.676-9.985l1.239-12.352
								c-17.599-28.2-60.499-36.202-64.747-36.575c-11.035-0.97-16.159-2.107-17.02-0.632c-0.863,1.474-3.565,11.3,12.447,13.223
								c20.094,2.414,6.753,18.478-34.014,3.186c-10.207-3.829-29.417,1.141-22.469,8.6
								C2328.468,861,2350.463,879.629,2397.682,882.509z"/>
						</g>
					</g>
				</g>
			</g>
		</g>
		<path fill="#201D40" d="M2708.414,648.604c27.648-28.318,83.855-32.678,94.234,8.472c10.379,41.149,9.341,69.01,60.766,59.498
			c40.951-7.576,85.566,26.945,88.994,85.167c4.385,74.487-48.941,48.543-34.807,84.629c14.133,36.089,24.04,72.953-29.133,77.306
			c-53.174,4.354-97.16-37.792-94.501-98.712c2.659-60.918-34.794-36.404-47.843-65.684
			C2727.57,757.646,2708.414,648.604,2708.414,648.604z"/>
		<g>
			<path fill="#F37A50" d="M2579.414,1775.752l-23.98-94.447l59.496-8.188c2.043,44.667,5.382,88.645,5.091,100.557
				L2579.414,1775.752z"/>
			<path fill="#F37A50" d="M2721.382,1672.572h62.122c-2.043,14.89-10.189,95.498-10.189,95.498
				c-5.25,11.91-51.544,9.192-51.544,2.492C2725.271,1756.045,2721.674,1674.434,2721.382,1672.572z"/>
			<path fill="#C4204A" d="M2619.805,1709.488l-61.262,9.045l-42.481-254.038c8.749-96.408,93.618-301.507,93.618-301.507
				l95.662,33.5l2.333,90.453l-115.202,195.049C2607.49,1519.71,2617.763,1641.668,2619.805,1709.488z"/>
			<path fill="#E62552" d="M2667.156,1169.783c0.877-5.955,1.168-7.816,6.125-10.795l91.869-26.057l21.875,21.59
				c20.707,75.191,7.875,179.788-8.458,262.795c23.915,71.841,14.56,219.941,4.937,289.549h-65.33
				c-3.791-46.529-2.603-132.838-2.896-174.528l0,0c-8.456-33.501-16.622-69.234-23.915-106.83
				c-9.332-48.019-20.998-94.547-24.207-138.099C2664.24,1246.09,2663.366,1201.796,2667.156,1169.783z"/>
		</g>
		
			<ellipse transform="matrix(1 -0.007 0.007 1 -5.2065 18.778)" fill="#F37A50" cx="2690.417" cy="756.073" rx="71.012" ry="90.415"/>
		<path fill="#F37A50" d="M2737.335,805.249l-57.034,32.39c0,0-5.061,23.094-7.588,30.586c-5.213,15.461,14.76,22.217,31.645,12.593
			c16.885-9.624,27.816-22.502,27.816-22.502L2737.335,805.249z"/>
		<path fill="#2C2858" d="M2617.424,746.793c13.596-1.24,89.275-20.784,98.025-34.457c-0.713,32.475,48.213,69.53,54.771,59.997
			c22.912-60.041,6.213-111.445-60.971-124.85C2617.123,629.102,2617.424,746.793,2617.424,746.793z"/>
		<circle cx="2696.826" cy="768.016" r="7.865"/>
		<circle cx="2642.256" cy="767.533" r="7.383"/>
		<g>
			<path fill="#2C2858" d="M2628.182,755.868c-0.277-0.125-0.539-0.302-0.769-0.533c-1.124-1.126-1.108-3.099,0.035-4.407
				c8.878-10.152,19.782-7.201,20.242-7.07c1.51,0.429,2.313,2.133,1.788,3.805c-0.525,1.667-2.173,2.671-3.683,2.251
				c-0.358-0.097-8.034-2.047-14.278,5.094C2630.608,756.046,2629.26,756.351,2628.182,755.868z"/>
		</g>
		<g>
			<path fill="#2C2858" d="M2711.135,757.317c0.279-0.124,0.539-0.301,0.77-0.532c1.123-1.126,1.107-3.1-0.035-4.407
				c-8.88-10.151-19.783-7.201-20.243-7.07c-1.511,0.429-2.314,2.133-1.788,3.805c0.525,1.666,2.172,2.672,3.683,2.251
				c0.358-0.096,8.034-2.046,14.278,5.093C2708.707,757.497,2710.057,757.803,2711.135,757.317z"/>
		</g>
		<path fill="#DE623C" d="M2654.099,776.787c-2.308,4.849-4.142,9.66-6.802,12.94c-0.896,1.105-0.746,2.747,0.313,3.697
			c4.378,3.919,13.71,5.203,19.31,5.622c0.817,0.06,1.086-1.072,0.328-1.387c-6.408-2.657-9.61-5.126-11.096-6.574
			c-0.738-0.721-1.074-1.749-0.928-2.77c0.332-2.344,0.965-7.109,1.185-10.948C2656.484,776.041,2654.67,775.587,2654.099,776.787z"
			/>
		
			<ellipse transform="matrix(-0.7167 -0.6974 0.6974 -0.7167 4180.8706 3273.6226)" fill="#F37A50" cx="2755.392" cy="787.57" rx="17.399" ry="21.261"/>
		<g>
			<path fill="#DE623C" d="M2748.427,795.865c-0.327-0.205-0.613-0.488-0.827-0.841c-3.074-5.062-2.883-10.389,0.513-14.25
				c3.476-3.953,9.343-5.336,13.947-3.292c1.295,0.576,1.88,2.092,1.304,3.388c-0.576,1.295-2.092,1.878-3.387,1.305
				c-2.523-1.122-6.041-0.247-8.01,1.99c-1.889,2.148-1.883,5.059,0.023,8.192c0.734,1.211,0.35,2.791-0.863,3.526
				C2750.269,796.408,2749.224,796.366,2748.427,795.865z"/>
		</g>
		<path fill="#3F964F" d="M2606.039,1169.811c99.661,38.313,186.553,10.002,186.553,10.002
			c-0.301-13.25,1.578-55.025-18.582-100.714c4.891-38.696,3.023-96.836,4.553-119.141c-11.87-59.842-6.232-64.903,4.477-93.097
			l-37.291-11.008l-67.121,23.67l-4.984-16.187c0,0-41.892,12.699-50.742,17.59l-16.092,63.752l3.441,140.977
			C2610.25,1085.655,2610.103,1161.179,2606.039,1169.811z"/>
		<g>
			<path fill="#DE623C" d="M2672.023,825.067c1.648,0.164,3.299,0.168,4.955,0.018c12.221-1.121,19.932-10.511,20.254-10.91
				c0.996-1.234,0.804-3.043-0.43-4.038c-1.232-0.995-3.036-0.806-4.033,0.424l0,0c-0.066,0.08-6.588,7.94-16.371,8.809
				c-6.373,0.567-12.852-1.927-19.257-7.417c-1.204-1.032-3.017-0.892-4.05,0.313c-1.031,1.204-0.892,3.017,0.313,4.049
				C2659.469,821.511,2665.711,824.442,2672.023,825.067z"/>
		</g>
		<g>
			<path fill="#2C2858" d="M2593.887,1774.228c-6.223-16.336-19.522-18.153-19.522-18.153
				c-25.854,34.485-89.347,13.325-87.243,59.968c96.55-0.599,136.677,0,136.677,0c-0.127-10.713-2.036-36.142-4.262-46.095
				l-5.032,0.894L2593.887,1774.228z"/>
			<path fill="#FFFFFF" d="M2492.098,1828.494h126.673c2.776,0,5.027-2.25,5.027-5.027v-8.709H2487.07v8.709
				C2487.07,1826.244,2489.32,1828.494,2492.098,1828.494z"/>
		</g>
		<g>
			<path fill="#2C2858" d="M2710.707,1816.494c0,0,7.75-28.917,8.433-32.631c0.777-4.226,3.055-14.211,3.521-19.332
				c0.114-1.262,13.422-9.4,23.584-9.384c13.765,0.022,26.311,7.997,26.563,9.502c1.626,9.649,1.674,20.994,4.306,30.394
				c1.958,6.989,7.277,23.279,7.277,23.279L2710.707,1816.494z"/>
			<g>
				<g>
					<g>
						<g>
							<path fill="#FFFFFF" d="M2710.707,1814.246c1.807,5.74,24.092-0.881,40.355-0.877c13.654,0.005,31.321,5.293,33.328,3.234
								c3.414,6.03,0.602,18.528,0.602,18.528s-14.229,0.736-31.295,0c-17.064-0.735-36.787,0.353-44.216-1.853
								C2704.793,1825.439,2710.707,1814.246,2710.707,1814.246z"/>
						</g>
					</g>
				</g>
			</g>
		</g>
		<path fill="#201D40" d="M2750.275,857.19c-14.404,23.098-44.921,86.966-41.861,170.486
			c3.059,83.521,23.962,184.993,14.321,278.025c49.074,4.356,95.913-1.936,95.913-1.936
			c-5.227-54.896-35.609-436.905-35.609-436.905C2767.656,862.321,2750.275,857.19,2750.275,857.19z"/>
		<g>
			<g id="c_31_">
				<path fill="#F37A50" d="M2825.756,1094.537l-9.085,3.631c0,0-6.692-15.417-16.294-14.938l1.232,15.268
					c0,0-4.656,16.291-33.748,14.366c-24.85,5.647-7.465,17.446-14.346,22.165c-10.15,6.963,18.318,24.064,42.304,16.688
					c31.037-9.544,51.201-38.852,51.201-38.852L2825.756,1094.537z"/>
			</g>
			<path fill="#F37A50" d="M2783.039,866.861c0,0,87.512,38.832,136.41,140.48c-28.558,40.201-59.367,16.292-59.367,16.292
				l-81.52-63.676c0,0-19.48-27.027-15.138-57.314C2767.637,873.274,2783.039,866.861,2783.039,866.861z"/>
			<path fill="#F37A50" d="M2824.289,1095.124l40.986-72.257c0,0,7.09-32.42,54.174-15.525c2.28,25.314,10.311,51.672-73.67,107.219
				C2834.875,1106.056,2824.289,1095.124,2824.289,1095.124z"/>
		</g>
		<path fill="#0E6A41" d="M2732.787,848.387l26.295,11.171c-2.775,31.577-73.437,50.447-73.437,50.447l-7.015-30.481
			L2732.787,848.387z"/>
		<path fill="#201D40" d="M2652.402,868.036c-12.922,41.274-32.407,98.865-27.094,160.637
			c5.314,61.772,11.729,161.446-19.27,266.843c-23.027,4.428-54.386,1.09-54.386,1.09s45.368-154.78,43.354-223.568
			c-2.231-76.349,1.266-145.043,20.039-188.75C2629.168,878.206,2652.402,868.036,2652.402,868.036z"/>
		<path fill="#0E6A41" d="M2678.631,879.524l-20.807,23.12c0,0-17.99-18.608-11.479-30.109c6.512-11.5,29.705-19.257,29.705-19.257
			L2678.631,879.524z"/>
	</g>
</g>
</svg>
